<svg width="9" height="13" viewBox="0 0 9 13" fill="none" xmlns="http://www.w3.org/2000/svg">
<path d="M0.9375 5.1875H3.9375V8.1875C3.9375 8.51562 4.17188 8.75 4.5 8.75C4.80469 8.75 5.0625 8.51562 5.0625 8.1875V5.1875H8.0625C8.36719 5.1875 8.625 4.95312 8.625 4.625C8.625 4.32031 8.36719 4.0625 8.0625 4.0625H5.0625V1.0625C5.0625 0.757812 4.80469 0.5 4.5 0.5C4.17188 0.5 3.9375 0.757812 3.9375 1.0625V4.0625H0.9375C0.609375 4.0625 0.375 4.32031 0.375 4.625C0.375 4.95312 0.609375 5.1875 0.9375 5.1875ZM8.25 11.375H0.75C0.421875 11.375 0.1875 11.6328 0.1875 11.9375C0.1875 12.2656 0.421875 12.5 0.75 12.5H8.25C8.55469 12.5 8.8125 12.2656 8.8125 11.9375C8.8125 11.6328 8.55469 11.375 8.25 11.375Z" fill="#001A44"/>
</svg>
