<svg width="13" height="13" viewBox="0 0 13 13" fill="none" xmlns="http://www.w3.org/2000/svg">
<path d="M6.28223 11.9961L6.8291 11.4766C6.96582 11.3398 6.96582 11.1211 6.8291 11.0117L2.59082 6.74609H11.9424C12.1064 6.74609 12.2705 6.60938 12.2705 6.41797V5.65234C12.2705 5.48828 12.1064 5.32422 11.9424 5.32422H2.59082L6.8291 1.08594C6.96582 0.976562 6.96582 0.757812 6.8291 0.621094L6.28223 0.101562C6.17285 -0.0351562 5.9541 -0.0351562 5.81738 0.101562L0.102539 5.81641C-0.0341797 5.95312 -0.0341797 6.14453 0.102539 6.28125L5.81738 11.9961C5.9541 12.1328 6.17285 12.1328 6.28223 11.9961Z" fill="black"/>
</svg>
