<svg width="172" height="115" viewBox="0 0 172 115" fill="none" xmlns="http://www.w3.org/2000/svg">
<g opacity="0.7" clip-path="url(#clip0_16036_67832)">
<path d="M136.426 28.6076L131.209 27.8419C131.147 27.8327 131.088 27.8112 131.034 27.7787C130.981 27.7461 130.935 27.7032 130.898 27.6524C130.861 27.6016 130.835 27.544 130.821 27.4829C130.807 27.4219 130.806 27.3587 130.816 27.297L131.581 22.0681C131.602 21.9438 131.67 21.8326 131.772 21.7589C131.875 21.6852 132.002 21.655 132.126 21.6749L137.343 22.4475C137.405 22.4567 137.464 22.4782 137.518 22.5108C137.571 22.5433 137.618 22.5863 137.654 22.6371C137.691 22.6879 137.717 22.7455 137.731 22.8065C137.745 22.8676 137.747 22.9308 137.736 22.9925L136.95 28.2144C136.943 28.2751 136.923 28.3337 136.892 28.3866C136.862 28.4395 136.821 28.4857 136.772 28.5224C136.723 28.5591 136.667 28.5855 136.608 28.6002C136.548 28.6148 136.487 28.6174 136.426 28.6076Z" fill="#E6EDF0"/>
<path d="M18.6704 81.5156L14.5352 80.9085C14.4867 80.901 14.4401 80.8839 14.3983 80.8583C14.3564 80.8327 14.32 80.799 14.2912 80.7593C14.2624 80.7195 14.2417 80.6744 14.2303 80.6267C14.219 80.5789 14.2172 80.5293 14.225 80.4808L14.8315 76.3419C14.8484 76.2433 14.9035 76.1554 14.9848 76.0973C15.0661 76.0392 15.1671 76.0155 15.2657 76.0315L19.4009 76.6385C19.4494 76.6461 19.4959 76.6632 19.5378 76.6888C19.5797 76.7144 19.6161 76.7481 19.6449 76.7878C19.6737 76.8276 19.6944 76.8726 19.7058 76.9204C19.7171 76.9682 19.7189 77.0177 19.7111 77.0662L19.0839 81.2051C19.079 81.2535 19.0641 81.3003 19.0402 81.3427C19.0163 81.385 18.984 81.4219 18.9451 81.4511C18.9062 81.4802 18.8618 81.501 18.8145 81.5121C18.7672 81.5232 18.7181 81.5244 18.6704 81.5156Z" fill="#E6EDF0"/>
<path d="M5.81803 68.8936L1.86889 70.2732C1.8223 70.2894 1.77295 70.2962 1.72371 70.2932C1.67447 70.2902 1.62633 70.2774 1.58208 70.2555C1.53783 70.2337 1.49836 70.2033 1.46596 70.1661C1.43355 70.1288 1.40887 70.0855 1.39334 70.0387L0.0149305 66.0791C-0.0159174 65.9848 -0.00866599 65.8823 0.0351325 65.7933C0.0789311 65.7043 0.155794 65.6361 0.24926 65.6031L4.20529 64.2235C4.30035 64.1929 4.40361 64.2012 4.49265 64.2464C4.58169 64.2916 4.64931 64.3701 4.68084 64.4649L6.05925 68.4245C6.07627 68.471 6.08347 68.5206 6.08039 68.5701C6.07731 68.6196 6.06402 68.6679 6.04135 68.7119C6.01868 68.756 5.98714 68.7949 5.9487 68.8262C5.91026 68.8574 5.86577 68.8804 5.81803 68.8936Z" fill="#E6EDF0"/>
<path d="M143.794 43.7074C143.794 43.7074 153.994 37.5542 155.041 26.7585C156.089 15.9628 147.371 1.69736 129.141 5.45688C110.912 9.2164 86.2795 28.221 67.285 21.8884C58.6904 18.9629 49.7236 17.2766 40.6542 16.8803C29.3995 16.4733 13.8648 17.8461 13.7752 32.6289C13.7258 34.0548 13.9911 35.474 14.5522 36.7855C15.1133 38.0971 15.9564 39.2687 17.0214 40.2169" stroke="#8D9CA0" stroke-width="0.125324" stroke-linecap="round" stroke-linejoin="round" stroke-dasharray="0.5 0.75"/>
<path d="M17.644 54.8814C17.644 54.8814 5.12804 36.208 17.1547 36.208C29.1813 36.208 17.644 54.8814 17.644 54.8814Z" fill="#8D9CA0"/>
<path d="M17.2765 45.5082C19.1987 45.5082 20.757 43.9485 20.757 42.0246C20.757 40.1007 19.1987 38.541 17.2765 38.541C15.3543 38.541 13.796 40.1007 13.796 42.0246C13.796 43.9485 15.3543 45.5082 17.2765 45.5082Z" fill="white"/>
<path d="M144.486 44.0389C145.198 44.0389 145.775 43.4614 145.775 42.749C145.775 42.0365 145.198 41.459 144.486 41.459C143.774 41.459 143.197 42.0365 143.197 42.749C143.197 43.4614 143.774 44.0389 144.486 44.0389Z" fill="#8D9CA0"/>
<path d="M45.7104 58.0747V42.1467C45.7104 40.5197 46.3557 38.9591 47.5046 37.808C48.6534 36.6568 50.2119 36.0092 51.8375 36.0073H119.559C121.185 36.0073 122.746 36.6542 123.896 37.8055C125.046 38.9569 125.693 40.5185 125.693 42.1467V93.9729H52.4853C50.8816 93.9733 49.3417 93.3442 48.1961 92.2209C47.0506 91.0976 46.3908 89.5694 46.3583 87.9646L45.7104 58.0747Z" fill="#E6EDF0"/>
<path d="M102.619 58.0693H68.1932V86.3796H102.619V58.0693Z" fill="#69767B"/>
<path d="M80.8321 86.4598L62.5062 86.479L62.5358 114.789L80.8618 114.77L80.8321 86.4598Z" fill="#69767B"/>
<path d="M99.3686 44.2786L100.402 50.7422L101.312 53.0117L98.0729 55.8607L96.5153 49.4453L97.363 43.8716L99.3686 44.2786Z" fill="#C1CED3"/>
<path d="M110.586 86.4211H81.191V114.731H110.586V86.4211Z" fill="#69767B"/>
<path d="M81.191 114.401V100.577" stroke="#231F20" stroke-width="0.250648" stroke-linecap="round" stroke-linejoin="round"/>
<path d="M68.1932 86.3796H102.619" stroke="#231F20" stroke-width="0.250648" stroke-linecap="round" stroke-linejoin="round"/>
<path d="M33.6581 86.4211H21.7762V114.731H33.6581V86.4211Z" fill="#69767B"/>
<path d="M21.7707 86.4211H4.60266V114.731H21.7707V86.4211Z" fill="#4B575B"/>
<path d="M64.5983 58.0693H52.7164V86.3796H64.5983V58.0693Z" fill="#4B575B"/>
<path d="M52.7074 58.0693H24.0365V86.3796H52.7074V58.0693Z" fill="#69767B"/>
<path d="M62.5382 86.4211H33.6605V114.731H62.5382V86.4211Z" fill="#4B575B"/>
<path d="M98.0947 53.731L97.4468 109.675H90.6444C90.6444 109.675 86.6953 94.9615 88.053 84.7177C88.8489 78.2303 88.7538 71.6643 87.7704 65.2027L82.8082 92.3678L79.4379 109.675H72.3667C72.3667 109.675 71.264 97.031 74.3723 84.2624C77.4806 71.4938 77.9906 53.731 77.9906 53.731H98.0947Z" fill="#E6EDF0"/>
<path d="M79.7414 30.3237C79.7414 30.3237 72.1602 33.083 70.7818 33.3727C70.7818 33.3727 64.1103 34.8627 63.6554 37.0633C63.2005 39.2638 63.8553 41.147 64.7581 41.2781C66.9325 41.9176 69.221 42.0694 71.4606 41.7224C73.7002 41.3754 75.8358 40.5383 77.7152 39.2707C77.7152 39.2707 78.1838 57.8959 77.6669 59.6273C77.15 61.3588 84.7726 61.7657 88.005 61.8278C91.2373 61.8899 97.3988 61.2415 98.0467 59.2341C98.6945 57.2267 97.7228 45.4929 97.7228 45.4929C98.6666 44.847 99.5542 44.1224 100.376 43.3268C100.376 43.3268 96.4891 33.628 95.6482 32.138C94.8074 30.6479 89.852 30.3237 89.852 30.3237H79.7414Z" fill="#69767B"/>
<path d="M81.8817 27.993C81.8817 27.993 79.5384 28.4413 79.7383 30.3246C79.927 31.5853 80.4427 32.7746 81.2339 33.7737C81.2339 33.7737 83.143 31.4903 84.6799 31.4007C85.4466 31.4017 86.2034 31.2271 86.8922 30.8902C86.8922 30.8902 89.7317 30.6005 90.1177 32.87C90.1177 32.87 90.5726 28.3931 87.4298 28.0068C85.5888 27.7622 83.7239 27.7576 81.8817 27.993Z" fill="#231F20"/>
<path d="M79.741 15.2176C79.741 15.2176 82.1463 17.1629 83.9589 15.6729C85.7715 14.1829 87.4738 15.4797 88.8936 15.2176C90.3134 14.9555 91.0853 14.1208 90.9612 12.8239C90.8372 11.5271 87.6599 8.41597 83.5798 9.837C79.4998 11.258 78.459 14.2449 78.459 14.2449C78.459 14.2449 75.9366 15.2866 76.1916 17.1629C76.3628 18.3143 76.8576 19.3933 77.6182 20.274H79.2999C79.9452 19.6116 80.3416 18.7462 80.422 17.8246C80.5024 16.903 80.2618 15.9819 79.741 15.2176Z" fill="#231F20"/>
<path d="M88.8849 15.2168C88.8849 15.2168 92.7583 23.9706 86.7346 26.2539C80.711 28.5372 79.7323 22.4944 79.7323 22.4944C79.7323 22.4944 76.176 21.8046 77.4717 19.1212C77.4717 19.1212 78.8501 18.0864 79.2843 20.287C79.8937 19.6052 80.2666 18.7445 80.3473 17.8332C80.428 16.922 80.2123 16.0091 79.7323 15.2306C79.7323 15.2306 82.2686 17.1759 83.9503 15.6859C84.3294 15.387 84.767 15.1711 85.2348 15.0523C85.7026 14.9335 86.1901 14.9143 86.6657 14.996C87.3977 15.1338 88.1402 15.2077 88.8849 15.2168Z" fill="#C1CED3"/>
<path d="M82.17 26.2344L81.8737 29.2903C81.8737 29.2903 84.403 32.3324 86.2156 31.2977C88.0282 30.2629 88.0283 29.5455 88.0283 29.5455L86.7325 26.2413L82.17 26.2344Z" fill="#C1CED3"/>
<path d="M70.8069 33.3613C70.8069 33.3613 69.7731 39.7767 68.8634 40.2595C67.9536 40.7424 65.5 41.3632 64.3284 40.2595C63.1568 39.1558 64.1561 36.1965 64.1561 36.1965C66.2553 34.9956 68.4873 34.0441 70.8069 33.3613Z" fill="#231F20"/>
<path d="M63.5361 34.4698C63.5361 34.4698 63.3638 38.5605 65.8862 38.8157C68.4087 39.071 69.7044 39.0778 71.3241 32.0072C72.3078 27.6922 72.9804 23.3121 73.3365 18.9006C73.3365 18.9006 75.4731 17.7969 75.4731 16.0516C75.4731 14.3064 76.1623 14.0374 76.1623 14.0374L75.4731 14.2995C75.4731 14.2995 75.5351 11.2505 74.6943 11.3815C74.0757 11.5267 73.4998 11.815 73.0126 12.2231C72.5577 12.4853 69.5666 13.6028 69.8492 14.8582C70.1317 16.1137 70.6762 17.2174 70.3523 18.059C70.0284 18.9006 63.9703 33.1109 63.5361 34.4698Z" fill="#C1CED3"/>
<path d="M74.6887 11.3967L75.3779 10.5551C75.3779 10.5551 79.713 11.5898 82.4974 8.99609C82.4974 8.99609 79.4856 12.9488 76.136 14.0525L75.4468 14.3146C75.4468 14.3146 75.3435 11.2035 74.6887 11.3967Z" fill="#4B575B"/>
<path d="M75.4091 10.5545C75.4091 10.5545 73.3967 5.49813 75.0852 3.22862C76.7738 0.959115 81.2329 -0.793029 84.5411 0.372768C85.6504 0.950067 86.5036 1.92213 86.9326 3.09756C86.9326 3.09756 84.865 7.05023 82.5286 8.99552C81.5858 9.86252 80.43 10.4636 79.1793 10.7375C77.9285 11.0114 76.6275 10.9483 75.4091 10.5545Z" fill="#69767B"/>
<path d="M90.6209 109.674C90.6209 109.674 89.6492 113.048 89.9731 114.731H104.026C104.026 114.731 104.674 112.723 101.373 112.199C99.395 111.888 97.5495 111.011 96.0588 109.674H90.6209Z" fill="#4B575B"/>
<path d="M73.9114 109.674C73.9114 109.674 70.8031 113.241 70.6721 114.731H78.9012C78.9012 114.731 79.68 113.11 78.5153 109.674H73.9114Z" fill="#4B575B"/>
<path d="M104.883 50.4883L112.133 59.4973L98.9211 69.9964L97.3704 68.3753L98.0802 55.862L101.319 53.013L104.883 50.4883Z" fill="#69767B"/>
<path d="M104.744 51.5225L98.0726 56.9031L97.9072 67.6643L98.9135 68.9611L111.092 59.3657L104.744 51.5225Z" fill="white"/>
<path d="M106.841 52.9307C106.841 52.9307 105.91 53.924 106.234 54.7035C106.739 55.5781 107.325 56.4027 107.985 57.1662C107.985 57.1662 109.274 57.9871 110.053 56.9592L106.841 52.9307Z" fill="#4B575B"/>
<path d="M101.375 60.2432L99.4316 61.8918L101.051 63.9682L103.188 62.4161L101.375 60.2432Z" stroke="#231F20" stroke-width="0.125324" stroke-linecap="round" stroke-linejoin="round"/>
<path d="M100.737 61.5671V62.4777L104.514 62.7398" stroke="#231F20" stroke-width="0.250648" stroke-linecap="round" stroke-linejoin="round"/>
<path d="M103.183 54.3726L107.139 58.9806" stroke="#231F20" stroke-width="0.125324" stroke-linecap="round" stroke-linejoin="round"/>
<path d="M101.957 55.2007L105.713 59.6293" stroke="#231F20" stroke-width="0.125324" stroke-linecap="round" stroke-linejoin="round"/>
<path d="M105.483 64.7881C105.483 64.7881 105.745 62.0288 106.434 62.7186C106.434 62.7393 107.571 66.2505 105.483 64.7881Z" fill="#C1CED3"/>
<path d="M106.43 62.7381C106.43 62.7381 106.272 61.5723 106.74 61.5723C107.209 61.5723 107.726 63.7728 107.664 64.2281C107.602 64.6834 106.74 64.2281 106.74 64.2281L106.43 62.7381Z" fill="#C1CED3"/>
<path d="M107.934 61.8556C107.934 61.8556 107.858 60.3862 107.507 60.3517C107.155 60.3173 107.059 61.621 107.141 61.9245C107.224 62.2281 107.741 63.8767 107.741 63.8767C107.741 63.8767 108.313 64.1458 107.934 61.8556Z" fill="#C1CED3"/>
<path d="M107.909 61.5125C107.909 61.5125 108.509 59.8432 108.66 60.3536C108.812 60.8641 109.094 62.9405 108.13 63.0026L107.909 61.5125Z" fill="#C1CED3"/>
<path d="M160.807 77.5507L167.809 82.1242C168.323 82.4572 168.746 82.9139 169.038 83.4525C169.331 83.9912 169.484 84.5946 169.484 85.2077V97.183H159.662L162.116 103.226H125.712V57.4148H147.022C147.998 57.4154 148.955 57.683 149.79 58.1889C150.624 58.6947 151.305 59.4194 151.757 60.2845L160.807 77.5507Z" fill="#E6EDF0"/>
<path d="M125.715 93.9739H110.587V103.224H125.715V93.9739Z" fill="#4B575B"/>
<path d="M131.757 63.56V74.6592C131.757 75.4246 132.06 76.1587 132.6 76.7006C133.141 77.2424 133.873 77.5477 134.638 77.5496H152.316L148.546 62.8771C148.39 62.2616 148.035 61.715 147.536 61.322C147.038 60.9291 146.424 60.7119 145.789 60.7042H134.679C134.3 60.6987 133.923 60.7683 133.57 60.9091C133.218 61.0498 132.897 61.2588 132.625 61.5242C132.354 61.7896 132.137 62.1061 131.988 62.4554C131.839 62.8048 131.761 63.1802 131.757 63.56Z" fill="white"/>
<path d="M151.942 60.6626H149.984L155.216 77.5494H160.798L151.942 60.6626Z" fill="white"/>
<path d="M153.009 75.3835L155.725 78.3084L155.387 78.7706L152.603 76.3079L153.009 75.3835Z" fill="black"/>
<path d="M155.724 79.4609C156.105 79.4609 156.414 79.1521 156.414 78.7711C156.414 78.3901 156.105 78.0813 155.724 78.0813C155.344 78.0813 155.035 78.3901 155.035 78.7711C155.035 79.1521 155.344 79.4609 155.724 79.4609Z" fill="black"/>
<path d="M137.371 103.224C137.371 103.224 139.79 92.6834 149.984 92.6834C149.984 92.6834 158.861 91.9315 162.114 103.251L137.371 103.224Z" stroke="#231F20" stroke-width="0.125324" stroke-linecap="round" stroke-linejoin="round"/>
<path d="M149.757 115C155.177 115 159.571 110.602 159.571 105.177C159.571 99.7522 155.177 95.3542 149.757 95.3542C144.337 95.3542 139.943 99.7522 139.943 105.177C139.943 110.602 144.337 115 149.757 115Z" fill="black"/>
<path d="M149.756 111.151C153.052 111.151 155.724 108.477 155.724 105.177C155.724 101.878 153.052 99.2036 149.756 99.2036C146.459 99.2036 143.787 101.878 143.787 105.177C143.787 108.477 146.459 111.151 149.756 111.151Z" fill="#E6EDF0"/>
<path d="M149.764 108.435C151.561 108.435 153.017 106.977 153.017 105.179C153.017 103.38 151.561 101.923 149.764 101.923C147.968 101.923 146.511 103.38 146.511 105.179C146.511 106.977 147.968 108.435 149.764 108.435Z" fill="#F5F7FA" stroke="#C8D4D9" stroke-width="0.187986" stroke-miterlimit="10"/>
<path d="M169.476 97.1821C169.476 97.1821 171.371 96.9061 171.371 97.9409V104.149C171.371 104.149 171.44 105.17 169.476 105.17H164.355C164.355 105.17 162.115 104.922 162.115 103.211L159.662 97.1683L169.476 97.1821Z" fill="black"/>
<path d="M169.477 86.4211H165.521V97.1823H169.477V86.4211Z" fill="black"/>
<path d="M127.727 103.226V83.0277C127.729 82.1622 127.947 81.3109 128.361 80.5513L129.74 78.0197C130.072 77.4052 130.247 76.7179 130.25 76.0192V62.2228C130.25 61.5312 130.524 60.868 131.013 60.379C131.501 59.89 132.164 59.6152 132.855 59.6152H151.36" stroke="#69767B" stroke-width="0.125324" stroke-linecap="round" stroke-linejoin="round"/>
<path d="M154.167 93.4078V77.6868" stroke="#69767B" stroke-width="0.125324" stroke-miterlimit="10"/>
<path d="M152.317 70.6655L148.354 59.6284" stroke="#69767B" stroke-width="0.125324" stroke-linecap="round" stroke-linejoin="round"/>
<path d="M107.909 61.5059L108.13 63.0028" stroke="#C9D1D3" stroke-width="0.062662" stroke-linecap="round" stroke-linejoin="round"/>
<path d="M107.14 61.925C107.375 62.5645 107.575 63.2161 107.74 63.8772" stroke="#C9D1D3" stroke-width="0.062662" stroke-linecap="round" stroke-linejoin="round"/>
<path d="M106.431 62.7405C106.431 62.7405 106.679 63.8787 106.741 64.2305" stroke="#C9D1D3" stroke-width="0.062662" stroke-linecap="round" stroke-linejoin="round"/>
<path d="M125.023 57.4148V93.9753" stroke="#69767B" stroke-width="0.250648" stroke-miterlimit="10"/>
<path d="M153.02 75.3838V71.8864C153.015 71.6331 152.922 71.3893 152.758 71.1966L152.641 71.0586C152.54 70.9396 152.414 70.844 152.273 70.7785C152.131 70.713 151.977 70.6791 151.821 70.6792H149.829C149.542 70.6793 149.267 70.7934 149.064 70.9965L148.671 71.3897C148.468 71.5928 148.354 71.8682 148.354 72.1554V77.3981C148.355 77.559 148.392 77.7178 148.461 77.8631C148.53 78.0085 148.63 78.137 148.754 78.2396L148.878 78.3362C149.072 78.4952 149.316 78.5807 149.567 78.5776H151.945C152.194 78.5798 152.437 78.4971 152.634 78.3431C152.761 78.2411 152.863 78.1119 152.934 77.9651C153.004 77.8182 153.04 77.6575 153.041 77.4946L153.02 75.3838Z" fill="black"/>
<path d="M33.6605 86.4211V114.731" stroke="#231F20" stroke-width="0.250648" stroke-miterlimit="10"/>
<path d="M24.0365 86.3796H64.5961" stroke="#231F20" stroke-width="0.250648" stroke-linecap="round" stroke-linejoin="round"/>
<path d="M35.1476 71.0227C35.1084 71.422 35.0011 71.8116 34.8306 72.1747C34.7484 72.3984 34.608 72.596 34.424 72.7473C34.2706 72.906 34.0862 73.0315 33.8822 73.1157C33.6783 73.2 33.4591 73.2413 33.2385 73.237C32.9728 73.2698 32.7044 73.2008 32.4873 73.0439V73.0025V72.9473C32.4945 72.844 32.5415 72.7476 32.6183 72.6783H32.6734C32.9482 72.6842 33.2209 72.6284 33.4713 72.515C33.7218 72.4016 33.9437 72.2334 34.1207 72.0229C34.3547 71.789 34.5152 71.4917 34.5825 71.1676C34.5807 71.0034 34.5448 70.8413 34.4772 70.6917C34.4096 70.5421 34.3116 70.4082 34.1896 70.2984L34.1207 70.2294L34.6445 69.4016L34.7617 69.5396C34.9252 69.7465 35.0439 69.9852 35.1103 70.2406C35.1768 70.4959 35.1895 70.7622 35.1476 71.0227Z" fill="black"/>
<path d="M36.8897 71.5976C36.8689 71.8143 36.8297 72.029 36.7726 72.2391C36.7432 72.4549 36.6495 72.6568 36.5038 72.8185C36.4554 72.8524 36.3973 72.8693 36.3384 72.8668C36.3122 72.8677 36.2862 72.8625 36.2623 72.8517C36.2384 72.841 36.2173 72.8249 36.2005 72.8047C36.1865 72.7757 36.1792 72.7439 36.1792 72.7116C36.1792 72.6794 36.1865 72.6475 36.2005 72.6185C36.2005 72.5012 36.2005 72.3702 36.2488 72.2253C36.2615 71.984 36.2615 71.7423 36.2488 71.501V69.9627C36.2488 69.6178 36.2488 69.2729 36.297 68.928C36.297 68.79 36.3384 68.6589 36.3659 68.521L36.7036 68.0105C36.7244 67.9716 36.7552 67.939 36.7927 67.916C36.8303 67.893 36.8733 67.8803 36.9173 67.8794C36.9461 67.8772 36.9749 67.882 37.0015 67.8934C37.028 67.9047 37.0514 67.9223 37.0696 67.9447C37.0879 67.967 37.1005 67.9935 37.1064 68.0217C37.1123 68.05 37.1112 68.0793 37.1034 68.1071C37.1034 68.1071 37.1034 68.2037 37.0414 68.5141C36.9793 68.8245 36.9793 68.8935 36.9793 68.9211C36.9377 69.3405 36.9239 69.7622 36.938 70.1834V70.2455V71.163C36.9309 71.3087 36.9148 71.4538 36.8897 71.5976Z" fill="black"/>
<path d="M40.1201 71.0233C40.084 71.4232 39.9766 71.8134 39.803 72.1753C39.7243 72.399 39.5861 72.597 39.4033 72.7479C39.2486 72.9068 39.063 73.0323 38.8579 73.1166C38.6528 73.2008 38.4326 73.242 38.211 73.2376C37.9472 73.2722 37.6804 73.2029 37.4666 73.0445L37.4253 73.0031V72.9479C37.4408 72.8518 37.4926 72.7654 37.57 72.7065L37.6114 72.6651H37.6734C37.9482 72.6705 38.2207 72.6145 38.471 72.5011C38.7214 72.3877 38.9434 72.2199 39.1207 72.0097C39.3547 71.7758 39.5152 71.4785 39.5825 71.1544C39.579 70.9898 39.5417 70.8277 39.4729 70.6782C39.4041 70.5287 39.3054 70.3949 39.1828 70.2852L39.1207 70.2162L39.6376 69.3884L39.7617 69.5264C39.9222 69.7372 40.0371 69.9792 40.0988 70.237C40.1605 70.4947 40.1677 70.7626 40.1201 71.0233Z" fill="black"/>
<path d="M40.0986 67.9184L40.009 68.0356C39.8736 68.206 39.747 68.3833 39.6299 68.5668L39.5334 68.7186L39.4163 68.6013C39.277 68.4679 39.1219 68.3521 38.9545 68.2564L38.8304 68.1805L38.9269 68.0563C39.0517 67.8954 39.1667 67.7273 39.2715 67.5528L39.3542 67.4148L39.4783 67.4976L39.9883 67.8425L40.0986 67.9184Z" fill="black"/>
<path d="M43.6978 71.3702C43.6523 71.7548 43.4773 72.1125 43.2016 72.3842H43.1602C42.8641 72.4579 42.5619 72.5041 42.2574 72.5222H42.0644C41.9933 72.5289 41.9218 72.5289 41.8507 72.5222C41.4303 72.4463 41.0375 72.1497 41.0513 71.2943V69.9147C41.0513 69.6112 41.0513 69.2248 41.0513 68.7903V67.9142L41.7405 67.2244L41.6509 70.6114C41.6298 70.8646 41.6555 71.1194 41.7267 71.3633C41.7527 71.4518 41.8075 71.529 41.8825 71.5828C41.9574 71.6365 42.0481 71.6637 42.1402 71.6599C43.0224 71.6599 43.1051 71.5082 43.112 71.5082C43.0569 71.3063 42.9684 71.115 42.8501 70.9425L42.8087 70.8666L43.4014 70.1147L43.4979 70.2872C43.6777 70.6178 43.7477 70.9971 43.6978 71.3702Z" fill="black"/>
<path d="M43.6052 73.3701L43.5156 73.4805C43.4398 73.5978 43.3089 73.7633 43.1504 73.991L43.0608 74.122L42.9505 74.0324C42.7575 73.8875 42.5921 73.7564 42.4405 73.653L42.3302 73.5771L42.4198 73.4529C42.5503 73.3021 42.6679 73.1406 42.7713 72.9701L42.854 72.8252L43.6052 73.3701Z" fill="black"/>
<path d="M45.1628 102.254C45.1277 102.651 45.0203 103.039 44.8457 103.399C44.7658 103.622 44.6278 103.819 44.446 103.971C44.2912 104.13 44.1057 104.257 43.9007 104.342C43.6958 104.427 43.4757 104.47 43.2537 104.468C42.9867 104.503 42.7167 104.431 42.5024 104.268V104.206C42.5181 104.111 42.567 104.026 42.6403 103.964L42.6885 103.923H42.7437C43.0214 103.926 43.2962 103.865 43.547 103.745C43.7978 103.626 44.018 103.451 44.191 103.233C44.4268 103.003 44.5878 102.708 44.6528 102.385C44.6509 102.22 44.6151 102.058 44.5475 101.909C44.4798 101.759 44.3819 101.625 44.2599 101.515L44.1979 101.44L44.7148 100.619L44.832 100.757C44.9881 100.969 45.0982 101.212 45.1552 101.47C45.2121 101.728 45.2147 101.995 45.1628 102.254Z" fill="black"/>
<path d="M46.9259 102.818C46.9026 103.035 46.8611 103.25 46.8018 103.46C46.7725 103.676 46.6788 103.878 46.533 104.039C46.4847 104.073 46.4265 104.09 46.3676 104.088C46.3414 104.088 46.3154 104.083 46.2915 104.072C46.2676 104.062 46.2465 104.046 46.2298 104.025C46.2152 103.997 46.2076 103.965 46.2076 103.932C46.2076 103.9 46.2152 103.868 46.2298 103.839C46.2298 103.722 46.2298 103.591 46.278 103.446C46.2897 103.216 46.2897 102.986 46.278 102.756V101.218C46.2766 100.872 46.2927 100.527 46.3262 100.183C46.3262 100.045 46.3676 99.9072 46.3952 99.7693L46.7329 99.2588C46.7556 99.2216 46.7868 99.1903 46.824 99.1675C46.8611 99.1448 46.9031 99.1311 46.9465 99.1277C46.9753 99.1255 47.0042 99.1303 47.0307 99.1417C47.0572 99.153 47.0806 99.1706 47.0989 99.193C47.1171 99.2153 47.1298 99.2418 47.1356 99.27C47.1415 99.2983 47.1405 99.3276 47.1326 99.3554C47.1326 99.3554 47.1326 99.4519 47.0706 99.7624C47.0086 100.073 47.0086 100.142 47.0086 100.169C46.967 100.591 46.9532 101.015 46.9672 101.439V101.501V102.418C46.9534 102.533 46.9396 102.667 46.9259 102.818Z" fill="black"/>
<path d="M50.1421 102.254C50.1047 102.652 49.9949 103.04 49.8182 103.399C49.7411 103.623 49.6026 103.822 49.4184 103.971C49.2649 104.13 49.0806 104.256 48.8768 104.342C48.673 104.427 48.454 104.47 48.233 104.468C48.1008 104.486 47.9664 104.477 47.8375 104.443C47.7086 104.408 47.5877 104.349 47.4818 104.268H47.4404V104.206C47.4559 104.11 47.5078 104.023 47.5852 103.964L47.6265 103.923H47.6885C47.9662 103.925 48.2406 103.863 48.4912 103.744C48.7418 103.625 48.9622 103.45 49.1359 103.233C49.3693 103.001 49.5299 102.707 49.5976 102.385C49.5942 102.221 49.5576 102.059 49.4901 101.91C49.4226 101.76 49.3255 101.626 49.2048 101.515L49.1359 101.44L49.6528 100.619L49.7768 100.757C49.9375 100.967 50.0528 101.209 50.1157 101.467C50.1785 101.724 50.1875 101.992 50.1421 102.254Z" fill="black"/>
<path d="M50.127 99.142L50.0374 99.2593C49.9203 99.4179 49.7893 99.5973 49.6584 99.7973L49.5619 99.9491L49.4447 99.8249C49.3019 99.6958 49.1473 99.5803 48.9829 99.48L48.8589 99.411L48.9554 99.2869C49.0788 99.1226 49.1938 98.9522 49.3 98.7764L49.3827 98.6384L49.5067 98.7281L50.0168 99.0661L50.127 99.142Z" fill="black"/>
<path d="M53.7129 102.59C53.6737 102.977 53.4977 103.336 53.2167 103.604H53.1754C52.878 103.671 52.5763 103.717 52.2725 103.742H52.0795C52.0086 103.752 51.9368 103.752 51.8659 103.742C51.4455 103.667 51.0526 103.37 51.0664 102.515V101.135C51.0664 100.831 51.0664 100.445 51.0664 100.017V99.1344L51.7901 98.4446L51.6867 101.811C51.6665 102.062 51.6922 102.314 51.7625 102.556C51.7863 102.646 51.8406 102.724 51.916 102.779C51.9915 102.833 52.0834 102.859 52.176 102.853C53.0582 102.853 53.1478 102.701 53.1478 102.701C53.0945 102.502 53.0083 102.313 52.8928 102.142L52.8514 102.066L53.4373 101.314L53.5337 101.48C53.7114 101.821 53.7743 102.211 53.7129 102.59Z" fill="black"/>
<path d="M53.6204 104.555L53.5377 104.672C53.455 104.783 53.3309 104.948 53.1655 105.183L53.0759 105.307L52.9656 105.217L52.4556 104.838L52.3453 104.762L52.4418 104.645C52.5665 104.489 52.6816 104.325 52.7864 104.155L52.8691 104.017L53.6204 104.555Z" fill="black"/>
<path d="M91.9958 38.4174C91.9834 38.5511 91.9484 38.6818 91.8924 38.8037C91.8924 38.852 91.8442 38.9072 91.7546 38.9969C91.7038 39.0498 91.6428 39.0918 91.5752 39.1203C91.5077 39.1488 91.435 39.1631 91.3617 39.1624C91.3167 39.1691 91.2709 39.1664 91.227 39.1545C91.1831 39.1427 91.1422 39.1219 91.1067 39.0935C91.1075 39.0768 91.1123 39.0606 91.1207 39.0461C91.1291 39.0317 91.1408 39.0196 91.1549 39.0107C91.2466 39.0114 91.3373 38.992 91.4206 38.9539C91.504 38.9157 91.578 38.8598 91.6374 38.7899C91.7152 38.713 91.768 38.6145 91.789 38.5071C91.79 38.4511 91.7788 38.3956 91.7561 38.3444C91.7335 38.2932 91.7001 38.2475 91.6581 38.2105L91.8304 37.9346L91.8717 37.9829C91.9687 38.1057 92.0133 38.2619 91.9958 38.4174Z" fill="black"/>
<path d="M92.5825 38.6113C92.5747 38.6836 92.5609 38.7552 92.5411 38.8252C92.5319 38.8973 92.5006 38.9647 92.4515 39.0183C92.4338 39.0252 92.4141 39.0252 92.3964 39.0183C92.3808 39.0241 92.3637 39.0241 92.3481 39.0183C92.3481 39.0183 92.3481 38.9838 92.3481 38.9562C92.3481 38.9286 92.3481 38.8735 92.3481 38.8252C92.3481 38.7769 92.3481 38.6596 92.3481 38.5837V38.0733C92.3481 37.956 92.3481 37.8387 92.3481 37.7215C92.3455 37.6755 92.3455 37.6294 92.3481 37.5835L92.4653 37.411C92.4723 37.3988 92.4823 37.3886 92.4944 37.3814C92.5065 37.3742 92.5202 37.3701 92.5342 37.3696C92.5437 37.3694 92.553 37.3713 92.5616 37.3753C92.5702 37.3792 92.5778 37.3851 92.5838 37.3924C92.5898 37.3997 92.594 37.4083 92.5962 37.4175C92.5983 37.4267 92.5984 37.4363 92.5963 37.4455C92.5963 37.4455 92.5963 37.4455 92.5963 37.5835C92.5963 37.7215 92.5963 37.7077 92.5963 37.7215C92.5858 37.8615 92.5858 38.0022 92.5963 38.1422V38.4665C92.5825 38.5078 92.5825 38.5561 92.5825 38.6113Z" fill="black"/>
<path d="M93.6661 38.4174C93.6537 38.5511 93.6187 38.6818 93.5627 38.8037C93.5311 38.8773 93.4841 38.9431 93.4248 38.9969C93.3728 39.05 93.3106 39.0921 93.2419 39.1205C93.1732 39.149 93.0994 39.1632 93.0251 39.1624C92.9812 39.1685 92.9366 39.1656 92.8939 39.1537C92.8512 39.1418 92.8114 39.1213 92.777 39.0935C92.7849 39.0619 92.8017 39.0332 92.8252 39.0107C92.918 39.0124 93.0101 38.9935 93.0947 38.9554C93.1793 38.9172 93.2544 38.8607 93.3146 38.7899C93.3898 38.7112 93.4422 38.6134 93.4662 38.5071C93.4654 38.4514 93.4535 38.3964 93.431 38.3454C93.4084 38.2945 93.3759 38.2486 93.3353 38.2105L93.5076 37.9346L93.5489 37.9829C93.6386 38.1091 93.6801 38.2632 93.6661 38.4174Z" fill="black"/>
<path d="M93.6553 37.3762V37.4176C93.6107 37.4751 93.5693 37.5349 93.5312 37.5969V37.6452L93.4899 37.6107C93.4215 37.5602 93.3444 37.5228 93.2624 37.5003H93.2211V37.459C93.2637 37.4064 93.3029 37.3511 93.3382 37.2934V37.2451H93.3796L93.5519 37.3624L93.6553 37.3762Z" fill="black"/>
<path d="M94.8653 38.534C94.8492 38.662 94.791 38.7809 94.6998 38.872C94.5998 38.8943 94.4986 38.9104 94.3966 38.9203H94.2587C94.1209 38.9203 93.99 38.7961 93.9968 38.5064V37.3751L94.2381 37.1475L94.2036 38.2719C94.1897 38.3564 94.1897 38.4426 94.2036 38.5271C94.2127 38.5562 94.2312 38.5814 94.2561 38.5989C94.281 38.6163 94.311 38.6251 94.3414 38.6237C94.6378 38.6237 94.6654 38.5754 94.6654 38.5685C94.6486 38.5021 94.6207 38.4391 94.5827 38.3822L94.7757 38.127L94.8101 38.1822C94.8617 38.2918 94.8808 38.4139 94.8653 38.534Z" fill="black"/>
<path d="M94.8314 39.1886V39.2299L94.7073 39.4024V39.4438L94.535 39.3196H94.4937V39.2782C94.5371 39.2287 94.5763 39.1757 94.6108 39.1196V39.0713L94.8314 39.1886Z" fill="black"/>
<path d="M10.0616 100.963C10.0314 101.355 9.94316 101.741 9.79965 102.108C9.73925 102.324 9.62547 102.52 9.46884 102.68C9.35612 102.833 9.20974 102.957 9.04115 103.043C8.87257 103.129 8.68634 103.175 8.49706 103.177C8.38634 103.193 8.27345 103.183 8.16711 103.148C8.06076 103.114 7.96379 103.055 7.88367 102.977V102.943V102.88C7.89003 102.788 7.93203 102.701 8.00083 102.639L8.03529 102.598H8.08354C8.3196 102.599 8.55195 102.539 8.75832 102.424C8.96468 102.309 9.13814 102.143 9.26208 101.942C9.461 101.698 9.59178 101.405 9.64114 101.094C9.63663 100.775 9.52218 100.468 9.31721 100.225L9.26897 100.149L9.68938 99.3279L9.78587 99.4658C10.0499 99.9172 10.1475 100.447 10.0616 100.963Z" fill="black"/>
<path d="M11.4885 101.542C11.4684 101.757 11.4362 101.972 11.392 102.183C11.3712 102.394 11.2924 102.594 11.1646 102.763C11.1471 102.779 11.1265 102.792 11.104 102.8C11.0815 102.809 11.0576 102.812 11.0337 102.811C11.0105 102.811 10.9876 102.806 10.9671 102.795C10.9467 102.784 10.9292 102.768 10.9165 102.749C10.8937 102.689 10.8937 102.623 10.9165 102.563C10.9165 102.446 10.9165 102.314 10.9165 102.17C10.9284 101.94 10.9284 101.71 10.9165 101.48V99.9415C10.9105 99.5962 10.922 99.2509 10.951 98.9067C10.951 98.7688 10.9716 98.6308 11.013 98.4928L11.2887 97.9824C11.3037 97.9462 11.3283 97.9148 11.3599 97.8917C11.3915 97.8686 11.4289 97.8546 11.4679 97.8513C11.5506 97.8513 11.6333 97.9203 11.6195 98.079C11.6195 98.079 11.6195 98.1755 11.5643 98.486C11.5092 98.7964 11.5161 98.8654 11.5161 98.8929C11.4803 99.315 11.4688 99.7388 11.4816 100.162V101.142C11.5 101.257 11.5023 101.39 11.4885 101.542Z" fill="black"/>
<path d="M14.1244 100.963C14.0964 101.355 14.0105 101.741 13.8694 102.108C13.8059 102.322 13.6925 102.518 13.5385 102.68C13.4258 102.833 13.2794 102.957 13.1109 103.043C12.9423 103.129 12.756 103.175 12.5668 103.177C12.456 103.193 12.3432 103.183 12.2368 103.148C12.1305 103.114 12.0335 103.055 11.9534 102.977V102.943V102.88C11.9664 102.79 12.0074 102.705 12.0705 102.639L12.1119 102.598H12.1532C12.3905 102.6 12.6242 102.541 12.8319 102.426C13.0396 102.311 13.2141 102.144 13.3387 101.942C13.5376 101.698 13.6684 101.405 13.7177 101.094C13.7132 100.775 13.5988 100.468 13.3938 100.225L13.3387 100.149L13.766 99.3279L13.8625 99.4658C14.1246 99.9179 14.2174 100.448 14.1244 100.963Z" fill="black"/>
<path d="M14.1073 97.8661L14.0384 97.9834C13.9261 98.1574 13.8226 98.337 13.7282 98.5215L13.6455 98.6732L13.549 98.549C13.4354 98.4208 13.3083 98.3051 13.17 98.2041L13.0735 98.1351L13.1562 98.011C13.2734 97.8109 13.363 97.6454 13.4319 97.5005L13.5008 97.3625L13.6042 97.4522L14.0177 97.7902L14.1073 97.8661Z" fill="black"/>
<path d="M17.042 101.315C17.0138 101.686 16.8718 102.041 16.6354 102.329V102.363H16.594C16.3527 102.431 16.1059 102.477 15.8566 102.501H15.6981C15.641 102.511 15.5828 102.511 15.5258 102.501C15.1811 102.425 14.8365 102.129 14.8365 101.273V99.8937C14.8365 99.5901 14.8365 99.2038 14.8365 98.7762V97.8932L15.4293 97.2034L15.3879 100.563C15.3669 100.812 15.3855 101.064 15.443 101.308C15.5051 101.508 15.6153 101.604 15.7876 101.604C16.4769 101.604 16.5733 101.453 16.5802 101.453C16.535 101.257 16.4631 101.069 16.3666 100.894V100.818L16.849 100.066L16.9317 100.232C17.0606 100.577 17.0986 100.95 17.042 101.315Z" fill="black"/>
<path d="M16.9643 103.279L16.8954 103.397C16.8333 103.507 16.73 103.672 16.599 103.907L16.5232 104.031L16.4336 103.942L16.0201 103.562L15.9236 103.486L15.9994 103.369C16.107 103.213 16.2037 103.049 16.2889 102.879L16.3578 102.741L16.9643 103.279Z" fill="black"/>
<path opacity="0.36" d="M64.7783 45.5503H33.137" stroke="#69767B" stroke-width="0.501296" stroke-linecap="round" stroke-linejoin="round"/>
<path opacity="0.36" d="M61.0068 51.6401H29.3655" stroke="#69767B" stroke-width="0.501296" stroke-linecap="round" stroke-linejoin="round"/>
<path opacity="0.36" d="M139.034 74.0596H107.385" stroke="#69767B" stroke-width="0.501296" stroke-linecap="round" stroke-linejoin="round"/>
<path opacity="0.36" d="M147.83 107.689H120.324" stroke="#69767B" stroke-width="0.501296" stroke-linecap="round" stroke-linejoin="round"/>
<path d="M97.9112 46.0059C97.9112 46.0059 96.3673 38.4179 94.8649 35.3413" stroke="#E6EDF0" stroke-width="0.062662" stroke-linecap="round" stroke-linejoin="round"/>
<path d="M79.2415 60.9126C78.89 65.6517 78.9244 64.2789 78.3317 68.9973C77.3737 76.6474 74.7616 83.9733 73.5073 91.5751C73.0249 94.4655 72.5769 97.6041 72.2805 100.619C72.0048 103.502 71.8739 107.034 72.3839 109.676" stroke="#E6EDF0" stroke-width="0.062662" stroke-linecap="round" stroke-linejoin="round"/>
<path d="M72.243 107.689C72.243 107.689 76.585 108.779 79.8243 107.689" stroke="#E6EDF0" stroke-width="0.062662" stroke-linecap="round" stroke-linejoin="round"/>
<path d="M90.139 107.682C90.139 107.682 96.3419 107.778 97.3619 106.261" stroke="#E6EDF0" stroke-width="0.062662" stroke-linecap="round" stroke-linejoin="round"/>
<path d="M82.1767 26.2344C82.889 26.5749 83.6685 26.7517 84.4579 26.7517C85.2474 26.7517 86.0268 26.5749 86.7392 26.2344C86.7392 26.2344 86.05 27.8968 82.0526 27.5381L82.1767 26.2344Z" fill="#69767B"/>
<path d="M83.9919 19.8733C84.2393 19.8733 84.4399 19.6726 84.4399 19.4249C84.4399 19.1773 84.2393 18.9766 83.9919 18.9766C83.7445 18.9766 83.5439 19.1773 83.5439 19.4249C83.5439 19.6726 83.7445 19.8733 83.9919 19.8733Z" fill="#231F20"/>
<path d="M88.0351 19.4256C88.2825 19.4256 88.4831 19.2248 88.4831 18.9772C88.4831 18.7296 88.2825 18.5288 88.0351 18.5288C87.7877 18.5288 87.5872 18.7296 87.5872 18.9772C87.5872 19.2248 87.7877 19.4256 88.0351 19.4256Z" fill="#231F20"/>
<path d="M86.7388 18.9766C87.1282 19.6303 87.5611 20.2572 88.0345 20.8529C88.3515 21.1357 87.3866 21.6738 87.3866 21.6738" stroke="#231F20" stroke-width="0.125324" stroke-linecap="round" stroke-linejoin="round"/>
<path d="M83.65 22.9302C84.0449 23.3293 84.5413 23.6128 85.0854 23.7502C85.6296 23.8875 86.2009 23.8735 86.7377 23.7097" stroke="#231F20" stroke-width="0.125324" stroke-linecap="round" stroke-linejoin="round"/>
<path d="M84.4446 17.7218C84.1369 17.6267 83.8074 17.6293 83.5013 17.7294C83.1952 17.8294 82.9276 18.022 82.7354 18.2805" stroke="#231F20" stroke-width="0.187986" stroke-linecap="round" stroke-linejoin="round"/>
<path d="M87.1365 17.5288C87.4034 17.3476 87.7201 17.2542 88.0425 17.2616C88.3649 17.2691 88.677 17.3769 88.9353 17.5702" stroke="#231F20" stroke-width="0.187986" stroke-linecap="round" stroke-linejoin="round"/>
<path d="M136.547 80.8733H132.55C132.112 80.8733 131.757 81.2269 131.757 81.6631C131.757 82.0994 132.112 82.453 132.55 82.453H136.547C136.985 82.453 137.34 82.0994 137.34 81.6631C137.34 81.2269 136.985 80.8733 136.547 80.8733Z" fill="black"/>
</g>
<defs>
<clipPath id="clip0_16036_67832">
<rect width="171.377" height="115" fill="white"/>
</clipPath>
</defs>
</svg>
