<svg width="15" height="16" viewBox="0 0 15 16" fill="none" xmlns="http://www.w3.org/2000/svg">
<path d="M12.3613 7H11.8613V4.5C11.8613 2.03125 9.83008 0 7.36133 0C4.86133 0 2.86133 2.03125 2.86133 4.5V7H2.36133C1.23633 7 0.361328 7.90625 0.361328 9L0.361328 14C0.361328 15.125 1.23633 16 2.36133 16H12.3613C13.4551 16 14.3613 15.125 14.3613 14V9C14.3613 7.90625 13.4551 7 12.3613 7ZM4.86133 4.5C4.86133 3.125 5.95508 2 7.36133 2C8.73633 2 9.86133 3.125 9.86133 4.5V7L4.86133 7V4.5Z" fill="white"/>
</svg>