<svg width="17" height="15" viewBox="0 0 17 15" fill="none" xmlns="http://www.w3.org/2000/svg">
<path d="M6.55252 8.0332H4.80252V10.6582L3.92752 10.084L3.05252 10.6582V8.0332H1.30252C0.810333 8.0332 0.427521 8.44336 0.427521 8.9082V13.2832C0.427521 13.7754 0.810333 14.1582 1.30252 14.1582H6.55252C7.01736 14.1582 7.42752 13.7754 7.42752 13.2832V8.9082C7.42752 8.44336 7.01736 8.0332 6.55252 8.0332ZM5.67752 6.2832H10.9275C11.3924 6.2832 11.8025 5.90039 11.8025 5.4082V1.0332C11.8025 0.568359 11.3924 0.158203 10.9275 0.158203H9.17752V2.7832L8.30252 2.20898L7.42752 2.7832V0.158203H5.67752C5.18533 0.158203 4.80252 0.568359 4.80252 1.0332V5.4082C4.80252 5.90039 5.18533 6.2832 5.67752 6.2832ZM15.3025 8.0332H13.5525V10.6582L12.6775 10.084L11.8025 10.6582V8.0332H10.0525C9.56033 8.0332 9.17752 8.44336 9.17752 8.9082V13.2832C9.17752 13.7754 9.56033 14.1582 10.0525 14.1582H15.3025C15.7674 14.1582 16.1775 13.7754 16.1775 13.2832V8.9082C16.1775 8.44336 15.7674 8.0332 15.3025 8.0332Z" fill="#4990FF"/>
</svg>
