<svg width="10" height="13" viewBox="0 0 10 13" fill="none" xmlns="http://www.w3.org/2000/svg">
<path d="M8.28125 0.375162H1.71875C1.10352 0.375162 0.625 0.876464 0.625 1.46891V11.3127C0.625 11.7228 0.94401 12.0418 1.35417 12.0418H3.90625V10.2189C3.90625 9.62646 4.38477 9.12516 5 9.12516C5.59245 9.12516 6.09375 9.62646 6.09375 10.2189V12.0418H8.64583C9.0332 12.0418 9.375 11.7228 9.375 11.3127V1.46891C9.375 0.876464 8.8737 0.375162 8.28125 0.375162ZM4.27083 7.30225C4.27083 7.50732 4.08854 7.66683 3.90625 7.66683H3.17708C2.97201 7.66683 2.8125 7.50732 2.8125 7.30225V6.57308C2.8125 6.39079 2.97201 6.2085 3.17708 6.2085H3.90625C4.08854 6.2085 4.27083 6.39079 4.27083 6.57308V7.30225ZM4.27083 5.11475C4.27083 5.31982 4.08854 5.47933 3.90625 5.47933H3.17708C2.97201 5.47933 2.8125 5.31982 2.8125 5.11475V4.38558C2.8125 4.20329 2.97201 4.021 3.17708 4.021H3.90625C4.08854 4.021 4.27083 4.20329 4.27083 4.38558V5.11475ZM4.27083 2.92725C4.27083 3.13232 4.08854 3.29183 3.90625 3.29183H3.17708C2.97201 3.29183 2.8125 3.13232 2.8125 2.92725V2.19808C2.8125 2.01579 2.97201 1.8335 3.17708 1.8335H3.90625C4.08854 1.8335 4.27083 2.01579 4.27083 2.19808V2.92725ZM7.1875 7.30225C7.1875 7.50732 7.00521 7.66683 6.82292 7.66683H6.09375C5.88867 7.66683 5.72917 7.50732 5.72917 7.30225V6.57308C5.72917 6.39079 5.88867 6.2085 6.09375 6.2085H6.82292C7.00521 6.2085 7.1875 6.39079 7.1875 6.57308V7.30225ZM7.1875 5.11475C7.1875 5.31982 7.00521 5.47933 6.82292 5.47933H6.09375C5.88867 5.47933 5.72917 5.31982 5.72917 5.11475V4.38558C5.72917 4.20329 5.88867 4.021 6.09375 4.021H6.82292C7.00521 4.021 7.1875 4.20329 7.1875 4.38558V5.11475ZM7.1875 2.92725C7.1875 3.13232 7.00521 3.29183 6.82292 3.29183H6.09375C5.88867 3.29183 5.72917 3.13232 5.72917 2.92725V2.19808C5.72917 2.01579 5.88867 1.8335 6.09375 1.8335H6.82292C7.00521 1.8335 7.1875 2.01579 7.1875 2.19808V2.92725Z" fill="#69767B"/>
</svg>
