<svg width="12" height="14" viewBox="0 0 12 14" fill="none" xmlns="http://www.w3.org/2000/svg">
<path d="M0.166666 12.4167C0.166666 13.1198 0.713541 13.6667 1.41667 13.6667H10.5833C11.2604 13.6667 11.8333 13.1198 11.8333 12.4167V5.33333H0.166666V12.4167ZM1.83333 7.41667C1.83333 7.20833 2.01562 7 2.25 7H4.75C4.95833 7 5.16667 7.20833 5.16667 7.41667V9.91667C5.16667 10.151 4.95833 10.3333 4.75 10.3333H2.25C2.01562 10.3333 1.83333 10.151 1.83333 9.91667V7.41667ZM10.5833 2H9.33333V1.16667C9.33333 0.723958 8.94271 0.333333 8.5 0.333333C8.03125 0.333333 7.66667 0.723958 7.66667 1.16667V2H4.33333V1.16667C4.33333 0.723958 3.94271 0.333333 3.5 0.333333C3.03125 0.333333 2.66667 0.723958 2.66667 1.16667V2H1.41667C0.713541 2 0.166666 2.57292 0.166666 3.25V4.5H11.8333V3.25C11.8333 2.57292 11.2604 2 10.5833 2Z" fill="#69767B"/>
</svg>
