<svg width="12" height="13" viewBox="0 0 12 13" fill="none" xmlns="http://www.w3.org/2000/svg">
<path d="M0.895833 10.9481C0.895833 11.5633 1.37435 12.0418 1.98958 12.0418H10.0104C10.6029 12.0418 11.1042 11.5633 11.1042 10.9481V4.75016H0.895833V10.9481ZM2.35417 6.57308C2.35417 6.39079 2.51367 6.2085 2.71875 6.2085H4.90625C5.08854 6.2085 5.27083 6.39079 5.27083 6.57308V8.76058C5.27083 8.96566 5.08854 9.12516 4.90625 9.12516H2.71875C2.51367 9.12516 2.35417 8.96566 2.35417 8.76058V6.57308ZM10.0104 1.8335H8.91667V1.10433C8.91667 0.716959 8.57487 0.375162 8.1875 0.375162C7.77734 0.375162 7.45833 0.716959 7.45833 1.10433V1.8335H4.54167V1.10433C4.54167 0.716959 4.19987 0.375162 3.8125 0.375162C3.40234 0.375162 3.08333 0.716959 3.08333 1.10433V1.8335H1.98958C1.37435 1.8335 0.895833 2.3348 0.895833 2.92725V4.021H11.1042V2.92725C11.1042 2.3348 10.6029 1.8335 10.0104 1.8335Z" fill="#69767B"/>
</svg>
