<svg width="24" height="24" viewBox="0 0 24 24" fill="none" xmlns="http://www.w3.org/2000/svg">
<circle cx="12" cy="12" r="12" fill="#F2555E"/>
<path d="M14.8906 14.0469L13.0938 12.25L14.8906 10.4727C15.1836 10.1602 15.1836 9.67188 14.8906 9.35938C14.5781 9.06641 14.0898 9.06641 13.7773 9.35938L12 11.1562L10.2031 9.35938C9.89062 9.06641 9.40234 9.06641 9.08984 9.35938C8.79688 9.67188 8.79688 10.1602 9.08984 10.4727L10.8867 12.25L9.08984 14.0469C8.79688 14.3594 8.79688 14.8477 9.08984 15.1602C9.40234 15.4531 9.89062 15.4531 10.2031 15.1602L12 13.3633L13.7773 15.1602C14.0898 15.4531 14.5781 15.4531 14.8906 15.1602C15.1836 14.8477 15.1836 14.3594 14.8906 14.0469Z" fill="white"/>
</svg>
