<svg width="14" height="12" viewBox="0 0 14 12" fill="none" xmlns="http://www.w3.org/2000/svg">
<path d="M11.0443 9.28571C10.4416 9.28571 9.97288 9.77679 9.97288 10.3571C9.97288 10.9598 10.4416 11.4286 11.0443 11.4286C11.6247 11.4286 12.1157 10.9598 12.1157 10.3571C12.1157 9.77679 11.6247 9.28571 11.0443 9.28571ZM4.61574 9.28571C4.01306 9.28571 3.54431 9.77679 3.54431 10.3571C3.54431 10.9598 4.01306 11.4286 4.61574 11.4286C5.1961 11.4286 5.68717 10.9598 5.68717 10.3571C5.68717 9.77679 5.1961 9.28571 4.61574 9.28571ZM13.3881 1.00446C13.2541 0.825893 13.0532 0.714286 12.8077 0.714286H3.38806L3.34342 0.446429C3.29878 0.200893 3.07556 5.96046e-07 2.83003 5.96046e-07H1.22288C0.910384 5.96046e-07 0.68717 0.245536 0.68717 0.535715C0.68717 0.848215 0.910384 1.07143 1.22288 1.07143H2.3836L3.72288 8.14732C3.76753 8.39286 3.99074 8.57143 4.2586 8.57143H11.58C11.8702 8.57143 12.1157 8.34821 12.1157 8.03571C12.1157 7.74554 11.8702 7.5 11.58 7.5H4.68271L4.48181 6.42857H11.6023C11.9148 6.42857 12.1827 6.22768 12.272 5.91518L13.4997 1.62946C13.5666 1.42857 13.522 1.18304 13.3881 1.00446Z" fill="#69767B"/>
</svg>
