<svg width="14" height="12" viewBox="0 0 14 12" fill="none" xmlns="http://www.w3.org/2000/svg">
<path d="M7.09196 8.08606C7.02299 8.15503 7 8.24699 7 8.33895V9.76432H8.42537C8.51733 9.76432 8.60929 9.74133 8.67826 9.67236L12.2877 6.03996L10.7244 4.47664L7.09196 8.08606ZM13.4372 4.06283L12.7015 3.32715C12.4716 3.09725 12.1038 3.09725 11.8739 3.32715L11.2531 3.94788L12.8164 5.51119L13.4372 4.89046C13.6671 4.66056 13.6671 4.29272 13.4372 4.06283ZM6.26432 0.20052V3.14323H9.20703L6.26432 0.20052ZM6.26432 10.5C5.87349 10.5 5.55164 10.2931 5.39071 9.97123C5.32174 9.83329 5.20679 9.8103 5.16081 9.8103C5.09184 9.8103 4.97689 9.83329 4.90792 9.94824L4.74699 10.3161C4.67802 10.431 4.54008 10.5 4.42513 10.5H4.37915C4.24121 10.5 4.10327 10.408 4.05729 10.2471L3.68945 9.09762L3.43656 9.83329C3.29862 10.2471 2.93079 10.5 2.49398 10.5H2.2181C2.01119 10.5 1.85026 10.3391 1.85026 10.1322C1.85026 9.94824 2.01119 9.76432 2.2181 9.76432H2.49398C2.60893 9.76432 2.70089 9.69535 2.74687 9.60339L3.16068 8.33895C3.22965 8.10905 3.43656 7.97111 3.68945 7.97111C3.91935 7.97111 4.12626 8.10905 4.19523 8.33895L4.51709 9.30452C4.97689 8.93669 5.75854 9.07463 6.03442 9.62638C6.0804 9.71834 6.17236 9.76432 6.26432 9.76432V8.17802C6.26432 7.9941 6.33329 7.81018 6.47123 7.67224L9.20703 4.95943V3.87891H6.26432C5.8505 3.87891 5.52865 3.55705 5.52865 3.14323V0.20052H1.48242C0.861694 0.20052 0.378906 0.706298 0.378906 1.30404V10.8678C0.378906 11.4886 0.861694 11.9714 1.48242 11.9714H8.10352C8.70125 11.9714 9.20703 11.4886 9.20703 10.8678V10.5H6.26432Z" fill="white"/>
</svg>
