<svg width="14" height="12" viewBox="0 0 14 12" fill="none" xmlns="http://www.w3.org/2000/svg">
<path d="M2.1875 0.0625H0.4375C0.191406 0.0625 0 0.28125 0 0.5V2.25C0 2.49609 0.191406 2.6875 0.4375 2.6875H2.1875C2.40625 2.6875 2.625 2.49609 2.625 2.25V0.5C2.625 0.28125 2.40625 0.0625 2.1875 0.0625ZM2.1875 4.4375H0.4375C0.191406 4.4375 0 4.65625 0 4.875V6.625C0 6.87109 0.191406 7.0625 0.4375 7.0625H2.1875C2.40625 7.0625 2.625 6.87109 2.625 6.625V4.875C2.625 4.65625 2.40625 4.4375 2.1875 4.4375ZM2.1875 8.8125H0.4375C0.191406 8.8125 0 9.03125 0 9.25V11C0 11.2461 0.191406 11.4375 0.4375 11.4375H2.1875C2.40625 11.4375 2.625 11.2461 2.625 11V9.25C2.625 9.03125 2.40625 8.8125 2.1875 8.8125ZM5.25 2.25H13.125C13.5898 2.25 14 1.86719 14 1.375C14 0.910156 13.5898 0.5 13.125 0.5H5.25C4.75781 0.5 4.375 0.910156 4.375 1.375C4.375 1.86719 4.75781 2.25 5.25 2.25ZM13.125 9.25H5.25C4.75781 9.25 4.375 9.66016 4.375 10.125C4.375 10.6172 4.75781 11 5.25 11H13.125C13.5898 11 14 10.6172 14 10.125C14 9.66016 13.5898 9.25 13.125 9.25ZM13.125 4.875H5.25C4.75781 4.875 4.375 5.28516 4.375 5.75C4.375 6.24219 4.75781 6.625 5.25 6.625H13.125C13.5898 6.625 14 6.24219 14 5.75C14 5.28516 13.5898 4.875 13.125 4.875Z" fill="#4990FF"/>
</svg>
