<svg width="24" height="24" viewBox="0 0 24 24" fill="none" xmlns="http://www.w3.org/2000/svg">
<circle cx="12" cy="12" r="12" fill="#FF8A00"/>
<path d="M10.1016 9.53906C9.92578 9.48047 9.73047 9.5 9.59375 9.63672L7.40625 11.668C7.21094 11.8438 7.21094 12.1758 7.40625 12.3516L9.59375 14.3828C9.73047 14.5195 9.92578 14.5391 10.1016 14.4609C10.2773 14.4023 10.375 14.2266 10.375 14.0313L10.375 12.7813L15.6875 12.7813L15.6875 14.9688C15.6875 15.418 16.0391 15.75 16.4688 15.75C16.918 15.75 17.25 15.418 17.25 14.9688L17.25 12C17.25 11.5703 16.918 11.2188 16.4688 11.2188L10.375 11.2188L10.375 9.96875C10.375 9.79297 10.2773 9.61719 10.1016 9.53906Z" fill="white"/>
</svg>
