<svg width="14" height="14" viewBox="0 0 14 14" fill="none" xmlns="http://www.w3.org/2000/svg">
<path d="M13.6406 10.4115C13.7188 10.0469 13.5365 9.65625 13.1719 9.5L10.3333 8.27604C9.99479 8.14583 9.60417 8.22396 9.39583 8.51042L8.25 9.91667C6.42708 9.03125 4.96875 7.57292 4.08333 5.77604L5.48958 4.60417C5.77604 4.39583 5.85417 4.00521 5.72396 3.66667L4.5 0.828124C4.34375 0.489583 3.95312 0.281249 3.5625 0.359374L0.958333 0.984374C0.567708 1.0625 0.333333 1.375 0.333333 1.76562C0.333333 8.32812 5.67187 13.6927 12.2344 13.6927C12.625 13.6927 12.9375 13.4323 13.0156 13.0417L13.6406 10.4115Z" fill="#69767B"/>
</svg>
