<svg width="24" height="24" viewBox="0 0 24 24" fill="none" xmlns="http://www.w3.org/2000/svg">
<circle cx="12" cy="12" r="12" fill="#4990FF"/>
<path d="M15.4375 15.375C14.9102 15.375 14.5 15.8047 14.5 16.3125C14.5 16.8398 14.9102 17.25 15.4375 17.25C15.9453 17.25 16.375 16.8398 16.375 16.3125C16.375 15.8047 15.9453 15.375 15.4375 15.375ZM9.8125 15.375C9.28516 15.375 8.875 15.8047 8.875 16.3125C8.875 16.8398 9.28516 17.25 9.8125 17.25C10.3203 17.25 10.75 16.8398 10.75 16.3125C10.75 15.8047 10.3203 15.375 9.8125 15.375ZM17.4883 8.12891C17.3711 7.97266 17.1953 7.875 16.9805 7.875H8.73828L8.69922 7.64062C8.66016 7.42578 8.46484 7.25 8.25 7.25H6.84375C6.57031 7.25 6.375 7.46484 6.375 7.71875C6.375 7.99219 6.57031 8.1875 6.84375 8.1875H7.85938L9.03125 14.3789C9.07031 14.5938 9.26562 14.75 9.5 14.75H15.9062C16.1602 14.75 16.375 14.5547 16.375 14.2812C16.375 14.0273 16.1602 13.8125 15.9062 13.8125H9.87109L9.69531 12.875H15.9258C16.1992 12.875 16.4336 12.6992 16.5117 12.4258L17.5859 8.67578C17.6445 8.5 17.6055 8.28516 17.4883 8.12891Z" fill="white"/>
</svg>
