<svg width="54" height="55" viewBox="0 0 54 55" fill="none" xmlns="http://www.w3.org/2000/svg">
<circle opacity="0.2" cx="26.7559" cy="27.7546" r="24" transform="rotate(-7.02727 26.7559 27.7546)" fill="#4990FF"/>
<path d="M16.4249 19.6752C11.9709 25.3817 13.0274 33.6464 18.6921 38.0679C24.3986 42.5219 32.6308 41.5071 37.0847 35.8006C41.5062 30.1359 40.524 21.862 34.8175 17.408C29.1527 12.9865 20.8464 14.0104 16.4249 19.6752ZM27.0821 20.6203L32.6249 31.3812C33.2669 32.6197 31.7633 33.8591 30.722 33.0463L27.0565 30.1853L24.1956 33.8508C23.3828 34.8921 21.6232 34.055 21.9453 32.6977L24.7089 20.9128C24.9934 19.8613 26.5508 19.6693 27.0821 20.6203Z" fill="#4990FF"/>
</svg>
