<svg width="12" height="11" viewBox="0 0 12 11" fill="none" xmlns="http://www.w3.org/2000/svg">
<path d="M9.53877 8.9585C9.01143 8.9585 8.60127 9.38818 8.60127 9.896C8.60127 10.4233 9.01143 10.8335 9.53877 10.8335C10.0466 10.8335 10.4763 10.4233 10.4763 9.896C10.4763 9.38818 10.0466 8.9585 9.53877 8.9585ZM3.91377 8.9585C3.38643 8.9585 2.97627 9.38818 2.97627 9.896C2.97627 10.4233 3.38643 10.8335 3.91377 10.8335C4.42159 10.8335 4.85127 10.4233 4.85127 9.896C4.85127 9.38818 4.42159 8.9585 3.91377 8.9585ZM11.5896 1.7124C11.4724 1.55615 11.2966 1.4585 11.0817 1.4585H2.83955L2.80049 1.22412C2.76143 1.00928 2.56612 0.833496 2.35127 0.833496H0.945024C0.671586 0.833496 0.476274 1.04834 0.476274 1.30225C0.476274 1.57568 0.671586 1.771 0.945024 1.771H1.96065L3.13252 7.9624C3.17159 8.17725 3.3669 8.3335 3.60127 8.3335H10.0075C10.2614 8.3335 10.4763 8.13818 10.4763 7.86475C10.4763 7.61084 10.2614 7.396 10.0075 7.396H3.97237L3.79659 6.4585H10.0271C10.3005 6.4585 10.5349 6.28271 10.613 6.00928L11.6872 2.25928C11.7458 2.0835 11.7067 1.86865 11.5896 1.7124Z" fill="#69767B"/>
</svg>
