<svg width="16" height="14" viewBox="0 0 16 14" fill="none" xmlns="http://www.w3.org/2000/svg">
<path d="M13.0781 7C12.7656 7 12.4531 6.97396 12.1667 6.86979V10.3333H3.80729V6.86979C3.52083 6.97396 3.20833 7 2.89583 7C2.73958 7 2.60938 7 2.45313 6.97396C2.34896 6.97396 2.27083 6.92187 2.16667 6.89583V12.4167C2.16667 13.1198 2.71354 13.6667 3.41667 13.6667H12.5833C13.2604 13.6667 13.8333 13.1198 13.8333 12.4167V6.89583C13.7031 6.92187 13.625 6.97396 13.4948 6.97396C13.3646 7 13.2344 7 13.0781 7ZM14.7448 3.04167L13.2604 0.697916C13.1302 0.463541 12.8958 0.333333 12.6354 0.333333H3.33854C3.07813 0.333333 2.84375 0.463541 2.71354 0.697916L1.22917 3.04167C0.447917 4.26562 1.125 5.95833 2.58333 6.16667C2.6875 6.16667 2.79167 6.16667 2.89583 6.16667C3.57292 6.16667 4.17188 5.88021 4.58854 5.4375C5.00521 5.88021 5.60417 6.16667 6.28125 6.16667C6.95833 6.16667 7.58333 5.88021 7.97396 5.4375C8.39063 5.88021 9.01563 6.16667 9.69271 6.16667C10.3698 6.16667 10.9688 5.88021 11.3854 5.4375C11.8021 5.88021 12.401 6.16667 13.0781 6.16667C13.1823 6.16667 13.2865 6.16667 13.3906 6.16667C14.849 5.95833 15.526 4.26562 14.7448 3.04167Z" fill="#69767B"/>
</svg>
