<svg width="24" height="24" viewBox="0 0 24 24" fill="none" xmlns="http://www.w3.org/2000/svg">
<circle cx="12" cy="12" r="12" fill="#04BFA5"/>
<path d="M12.0781 13.9492C12.0195 14.0078 12 14.0859 12 14.1641V15.375H13.2109C13.2891 15.375 13.3672 15.3555 13.4258 15.2969L16.4922 12.2109L15.1641 10.8828L12.0781 13.9492ZM17.4688 10.5312L16.8438 9.90625C16.6484 9.71094 16.3359 9.71094 16.1406 9.90625L15.6133 10.4336L16.9414 11.7617L17.4688 11.2344C17.6641 11.0391 17.6641 10.7266 17.4688 10.5312ZM11.375 7.25V9.75H13.875L11.375 7.25ZM11.375 16C11.043 16 10.7695 15.8242 10.6328 15.5508C10.5742 15.4336 10.4766 15.4141 10.4375 15.4141C10.3789 15.4141 10.2812 15.4336 10.2227 15.5312L10.0859 15.8438C10.0273 15.9414 9.91016 16 9.8125 16H9.77344C9.65625 16 9.53906 15.9219 9.5 15.7852L9.1875 14.8086L8.97266 15.4336C8.85547 15.7852 8.54297 16 8.17188 16H7.9375C7.76172 16 7.625 15.8633 7.625 15.6875C7.625 15.5312 7.76172 15.375 7.9375 15.375H8.17188C8.26953 15.375 8.34766 15.3164 8.38672 15.2383L8.73828 14.1641C8.79688 13.9688 8.97266 13.8516 9.1875 13.8516C9.38281 13.8516 9.55859 13.9688 9.61719 14.1641L9.89062 14.9844C10.2812 14.6719 10.9453 14.7891 11.1797 15.2578C11.2188 15.3359 11.2969 15.375 11.375 15.375V14.0273C11.375 13.8711 11.4336 13.7148 11.5508 13.5977L13.875 11.293V10.375H11.375C11.0234 10.375 10.75 10.1016 10.75 9.75V7.25H7.3125C6.78516 7.25 6.375 7.67969 6.375 8.1875V16.3125C6.375 16.8398 6.78516 17.25 7.3125 17.25H12.9375C13.4453 17.25 13.875 16.8398 13.875 16.3125V16H11.375Z" fill="white"/>
</svg>
