<svg width="28" height="46" viewBox="0 0 28 46" fill="none" xmlns="http://www.w3.org/2000/svg">
<path d="M28 14.644C28 24.2427 16.9229 33.231 14.4744 35.0993C14.3384 35.203 14.1716 35.2593 14 35.2593C13.8284 35.2593 13.6616 35.203 13.5256 35.0993C11.0787 33.2325 0 24.2427 0 14.644C0 6.55741 5.838 0 14 0C22.162 0 28 6.55741 28 14.644Z" fill="#4990FF"/>
<path d="M14 14.25C15.3672 14.25 16.5 13.1367 16.5 11.75C16.5 10.3828 15.3672 9.25 14 9.25C12.6133 9.25 11.5 10.3828 11.5 11.75C11.5 13.1367 12.6133 14.25 14 14.25ZM14.9766 15.1875H13.0039C11.1289 15.1875 9.625 16.7109 9.625 18.5859C9.625 18.957 9.91797 19.25 10.2891 19.25H17.6914C18.0625 19.25 18.375 18.957 18.375 18.5859C18.375 16.7109 16.8516 15.1875 14.9766 15.1875Z" fill="white"/>
<circle cx="14" cy="42" r="3.5" fill="#4990FF" stroke="white" stroke-linecap="round" stroke-linejoin="round"/>
</svg>
