<svg width="24" height="24" viewBox="0 0 24 24" fill="none" xmlns="http://www.w3.org/2000/svg">
<circle cx="12" cy="12" r="12" fill="#04BFA5"/>
<path d="M16.2969 9.18359C16.4336 8.83203 16.3555 8.42188 16.082 8.16797C15.8281 7.89453 15.418 7.81641 15.0664 7.95312L8.19141 10.7656C7.78125 10.9414 7.54688 11.3711 7.625 11.8203C7.72266 12.25 8.11328 12.582 8.5625 12.582H11.6875V15.707C11.6875 16.1758 12.0586 16.625 12.625 16.625C12.9961 16.625 13.3281 16.4102 13.4844 16.0586L16.2969 9.18359Z" fill="white"/>
<path d="M16.0625 10.082C16.375 9.76953 16.375 9.28125 16.0625 8.96875C15.75 8.67578 15.2617 8.67578 14.9688 8.96875L10.5156 13.4219L8.5625 11.4688C8.25 11.1758 7.76172 11.1758 7.46875 11.4688C7.15625 11.7812 7.15625 12.2695 7.46875 12.582L9.96875 15.082C10.1055 15.2383 10.3203 15.3164 10.5156 15.3164C10.7109 15.3164 10.9062 15.2383 11.0625 15.082L16.0625 10.082Z" fill="white"/>
<circle cx="12" cy="12" r="11.5" fill="#FAFBFC" stroke="#04BFA5"/>
<path d="M16.0625 10.082C16.375 9.76953 16.375 9.28125 16.0625 8.96875C15.75 8.67578 15.2617 8.67578 14.9688 8.96875L10.5156 13.4219L8.5625 11.4688C8.25 11.1758 7.76172 11.1758 7.46875 11.4688C7.15625 11.7812 7.15625 12.2695 7.46875 12.582L9.96875 15.082C10.1055 15.2383 10.3203 15.3164 10.5156 15.3164C10.7109 15.3164 10.9062 15.2383 11.0625 15.082L16.0625 10.082Z" fill="#04BFA5"/>
<circle cx="12" cy="12" r="12" fill="#E6EDF0"/>
<path d="M12 17C14.7614 17 17 14.7614 17 12C17 9.23858 14.7614 7 12 7C9.23858 7 7 9.23858 7 12C7 14.7614 9.23858 17 12 17Z" fill="#69767B"/>
</svg>
