<svg width="28" height="32" viewBox="0 0 28 32" fill="none" xmlns="http://www.w3.org/2000/svg">
<path fill-rule="evenodd" clip-rule="evenodd" d="M17.0123 27.6751C23.2965 26.2971 28 20.6979 28 14C28 6.26801 21.732 0 14 0C6.26801 0 0 6.26801 0 14C0 20.182 4.00687 25.4281 9.56523 27.283C9.58844 27.3206 9.61355 27.3576 9.64062 27.3941L12.2264 30.8774C12.8261 31.6854 14.0355 31.6854 14.6352 30.8774L17.0123 27.6751Z" fill="#69767B"/>
<path d="M17.8086 14.25C17.5742 14.25 17.3398 14.2305 17.125 14.1523V16.75H10.8555V14.1523C10.6406 14.2305 10.4062 14.25 10.1719 14.25C10.0547 14.25 9.95703 14.25 9.83984 14.2305C9.76172 14.2305 9.70312 14.1914 9.625 14.1719V18.3125C9.625 18.8398 10.0352 19.25 10.5625 19.25H17.4375C17.9453 19.25 18.375 18.8398 18.375 18.3125V14.1719C18.2773 14.1914 18.2188 14.2305 18.1211 14.2305C18.0234 14.25 17.9258 14.25 17.8086 14.25ZM19.0586 11.2812L17.9453 9.52344C17.8477 9.34766 17.6719 9.25 17.4766 9.25H10.5039C10.3086 9.25 10.1328 9.34766 10.0352 9.52344L8.92188 11.2812C8.33594 12.1992 8.84375 13.4688 9.9375 13.625C10.0156 13.625 10.0938 13.625 10.1719 13.625C10.6797 13.625 11.1289 13.4102 11.4414 13.0781C11.7539 13.4102 12.2031 13.625 12.7109 13.625C13.2188 13.625 13.6875 13.4102 13.9805 13.0781C14.293 13.4102 14.7617 13.625 15.2695 13.625C15.7773 13.625 16.2266 13.4102 16.5391 13.0781C16.8516 13.4102 17.3008 13.625 17.8086 13.625C17.8867 13.625 17.9648 13.625 18.043 13.625C19.1367 13.4688 19.6445 12.1992 19.0586 11.2812Z" fill="white"/>
</svg>
