<svg width="16" height="13" viewBox="0 0 16 13" fill="none" xmlns="http://www.w3.org/2000/svg">
<path d="M14.9271 8.396H14.5625V5.79834C14.5625 5.41097 14.403 5.04639 14.1296 4.75016L12.375 2.9956C12.1016 2.72217 11.7142 2.56266 11.3268 2.56266H10.1875V1.46891C10.1875 0.876464 9.6862 0.375162 9.09375 0.375162H1.80208C1.18685 0.375162 0.708333 0.876464 0.708333 1.46891V8.76058C0.708333 9.37581 1.18685 9.85433 1.80208 9.85433H2.16667C2.16667 11.062 3.14648 12.0418 4.35417 12.0418C5.56185 12.0418 6.54167 11.062 6.54167 9.85433H9.45833C9.45833 11.062 10.4382 12.0418 11.6458 12.0418C12.8535 12.0418 13.8333 11.062 13.8333 9.85433H14.9271C15.1094 9.85433 15.2917 9.69482 15.2917 9.48975V8.76058C15.2917 8.57829 15.1094 8.396 14.9271 8.396ZM4.35417 10.9481C3.73893 10.9481 3.26042 10.4696 3.26042 9.85433C3.26042 9.26188 3.73893 8.76058 4.35417 8.76058C4.94661 8.76058 5.44792 9.26188 5.44792 9.85433C5.44792 10.4696 4.94661 10.9481 4.35417 10.9481ZM10.1875 4.021H11.3268L13.1042 5.79834V6.2085H10.1875V4.021ZM11.6458 10.9481C11.0306 10.9481 10.5521 10.4696 10.5521 9.85433C10.5521 9.26188 11.0306 8.76058 11.6458 8.76058C12.2383 8.76058 12.7396 9.26188 12.7396 9.85433C12.7396 10.4696 12.2383 10.9481 11.6458 10.9481Z" fill="#69767B"/>
</svg>
