<svg width="24" height="24" viewBox="0 0 24 24" fill="none" xmlns="http://www.w3.org/2000/svg">
<circle cx="12" cy="12" r="12" fill="#A1B5BD"/>
<path d="M16.375 12.875C16.375 12.1914 15.8086 11.625 15.125 11.625H10.4375V10.0625C10.4375 9.20312 11.1211 8.5 12 8.5C12.8594 8.5 13.5625 9.20312 13.5625 10.0625V10.375H14.8125V10.0625C14.8125 8.51953 13.543 7.25 12 7.25C10.4375 7.25 9.1875 8.51953 9.1875 10.0625V11.625H8.875C8.17188 11.625 7.625 12.1914 7.625 12.875V16C7.625 16.7031 8.17188 17.25 8.875 17.25H15.125C15.8086 17.25 16.375 16.7031 16.375 16V12.875Z" fill="white"/>
</svg>
