<svg width="73" height="94" viewBox="0 0 73 94" fill="none" xmlns="http://www.w3.org/2000/svg">
<path d="M37.2569 86.8608C57.1171 81.2113 72.7561 75.0114 72.1877 73.013C71.6192 71.0147 55.0585 73.9745 35.1983 79.6241C15.3381 85.2736 -0.300881 91.4735 0.26759 93.4719C0.836061 95.4703 17.3968 92.5104 37.2569 86.8608Z" fill="#FAFBFC"/>
<path d="M56.8048 20.762C56.8048 20.762 15.3042 32.446 9.47351 35.0174C6.74199 36.2231 6.56189 37.6939 6.60692 39.5274L8.30036 85.7506C8.34789 87.5841 9.36845 90.2181 12.225 89.8304L58.1731 74.6144C59.7164 74.1666 60.9296 72.3156 60.8846 70.4846L60.7795 22.1477C60.732 20.3142 58.3482 20.3117 56.8048 20.762Z" fill="#69767B"/>
<path d="M58.4967 20.7614L9.47444 35.0169C7.93108 35.4646 6.71791 37.3156 6.76293 39.1467L7.9611 86.3629C8.00862 88.1964 9.29684 89.317 10.8402 88.8693L59.8624 74.6139C61.4058 74.1661 62.619 72.3151 62.5739 70.4841L61.3758 23.2678C61.3282 21.4343 60.04 20.3112 58.4967 20.7614Z" fill="#69767B"/>
<path d="M56.4792 24.531L11.6543 37.5657C10.2435 37.976 9.1329 39.6194 9.17292 41.2378L10.231 82.9134C10.271 84.5318 11.4492 85.5099 12.86 85.0996L57.6849 72.0649C59.0957 71.6547 60.2063 70.0112 60.1662 68.3928L59.1082 26.7172C59.0656 25.0988 57.89 24.1208 56.4792 24.531Z" stroke="#F8B450" stroke-width="0.232054" stroke-miterlimit="10" stroke-dasharray="1.9 1.9"/>
<path opacity="0.43" d="M48.8102 44.3876C47.7846 44.6852 46.9767 45.9159 47.0067 47.1341L47.2418 56.4193C47.2718 57.6374 48.1298 58.3853 49.1579 58.0852L62.1651 54.3031L61.8174 40.6055L48.8102 44.3876Z" fill="#985C3A"/>
<path d="M64.0761 39.3643L49.6481 43.5591C48.6225 43.8568 47.8145 45.0875 47.8446 46.3057L48.0797 55.5908C48.1097 56.809 48.9677 57.5569 49.9958 57.2567L64.4238 53.0619C65.4493 52.7642 66.2573 51.5336 66.2273 50.3154L65.9921 41.0302C65.9596 39.812 65.1016 39.0666 64.0761 39.3643Z" fill="#A87442"/>
<path d="M63.2608 40.9538L50.5262 44.6583C49.6207 44.921 48.9053 45.929 48.9303 46.9096L49.1204 54.3737C49.1454 55.3543 49.9009 55.9346 50.8064 55.672L63.5409 51.9674C64.4464 51.7048 65.1618 50.6967 65.1368 49.7162L64.9467 42.252C64.9217 41.2715 64.1663 40.6911 63.2608 40.9538Z" stroke="#F8B450" stroke-width="0.232054" stroke-miterlimit="10" stroke-dasharray="1.9 1.9"/>
<path d="M54.7886 48.9642C54.8236 50.3475 53.9081 51.7432 52.7425 52.0809C51.5768 52.4186 50.6063 51.5731 50.5713 50.1899C50.5363 48.8066 51.4518 47.4108 52.6174 47.0731C53.7806 46.7329 54.7536 47.5809 54.7886 48.9642Z" fill="#FDCC53"/>
<path opacity="0.24" d="M8.08636 35.873C7.2659 36.6885 6.7306 37.9217 6.76312 39.1499L7.96129 86.3661C8.00881 88.1996 9.29703 89.3202 10.8404 88.8725L59.8626 74.6171C61.406 74.1693 62.6191 72.3183 62.5741 70.4873L62.299 59.6463C31.4493 86.1685 9.38708 67.7683 8.08636 35.873Z" fill="#985C3A"/>
<path d="M29.1988 22.1931C31.5651 26.9983 30.0093 33.8946 25.7244 37.5942C24.1235 38.9749 23.7383 39.7154 22.0448 39.8504C21.7672 39.8729 20.1263 39.8779 19.8511 39.8679C17.3247 39.7754 15.0184 38.3071 13.6802 35.5881C11.3139 30.7829 12.8697 23.8866 17.1546 20.187C18.7605 18.7987 20.524 18.0583 22.2249 17.9282C22.5801 17.9007 24.3361 17.9282 24.3361 17.9282C24.3361 17.9282 27.9056 19.5642 29.1988 22.1931Z" fill="#CA6B0A"/>
<path d="M30.9097 22.1944C33.2761 26.9995 31.7202 33.8959 27.4353 37.5954C23.1504 41.295 17.7574 40.3995 15.3911 35.5918C13.0248 30.7867 14.5807 23.8903 18.8656 20.1908C23.1504 16.4912 28.5409 17.3867 30.9097 22.1944Z" fill="url(#paint0_linear_12777_46974)"/>
<path d="M28.8855 23.8944C30.6339 27.4464 29.4858 32.5392 26.319 35.2732C23.1523 38.0072 19.1676 37.3444 17.4191 33.7924C15.6706 30.2404 16.8188 25.1476 19.9855 22.4136C23.1523 19.6796 27.137 20.3424 28.8855 23.8944Z" fill="url(#paint1_linear_12777_46974)"/>
<path d="M53.1196 22.1331C54.9756 25.9002 53.7549 31.3057 50.3956 34.2048C49.1424 35.2879 48.8372 35.8682 47.5115 35.9733C47.2939 35.9908 46.0056 35.9958 45.793 35.9883C43.8119 35.9158 42.0034 34.7651 40.9553 32.6339C39.0993 28.8669 40.32 23.4613 43.6793 20.5622C44.94 19.4741 46.3208 18.8938 47.6541 18.7913C47.9317 18.7687 49.31 18.7913 49.31 18.7913C49.31 18.7913 52.1065 20.072 53.1196 22.1331Z" fill="#CA6B0A"/>
<path d="M54.462 22.133C56.318 25.9001 55.0973 31.3056 51.738 34.2047C48.3786 37.1038 44.1513 36.401 42.2952 32.6339C40.4392 28.8668 41.6599 23.4613 45.0192 20.5622C48.3786 17.663 52.606 18.3659 54.462 22.133Z" fill="url(#paint2_linear_12777_46974)"/>
<path d="M52.8745 23.4661C54.2452 26.2502 53.3447 30.2424 50.8633 32.3861C48.382 34.5298 45.2577 34.0095 43.887 31.2254C42.5162 28.4414 43.4167 24.4492 45.8981 22.3055C48.382 20.1618 51.5037 20.6821 52.8745 23.4661Z" fill="url(#paint3_linear_12777_46974)"/>
<path d="M39.3002 3.25212C40.8986 6.49892 39.848 11.154 36.9539 13.6529C35.8733 14.5859 35.6132 15.0862 34.4676 15.1762C34.2799 15.1912 33.1718 15.1962 32.9867 15.1887C31.2808 15.1262 29.7224 14.1357 28.8194 12.2996C27.221 9.05284 28.2716 4.39775 31.1657 1.89886C32.2513 0.960843 33.442 0.460565 34.5901 0.373016C34.8303 0.355507 36.0159 0.373016 36.0159 0.373016C36.0159 0.373016 38.4273 1.47863 39.3002 3.25212Z" fill="#CA6B0A"/>
<path d="M40.4604 3.25112C42.0588 6.49792 41.0082 11.153 38.1141 13.6519C35.22 16.1508 31.578 15.5454 29.9796 12.2986C28.3812 9.05184 29.4318 4.39676 32.3259 1.89787C35.22 -0.598517 38.862 0.00681874 40.4604 3.25112Z" fill="url(#paint4_linear_12777_46974)"/>
<path d="M39.3984 4.1665C40.6741 6.75543 39.8361 10.47 37.5273 12.4636C35.2185 14.4572 32.3119 13.9744 31.0387 11.3855C29.7655 8.79657 30.601 5.082 32.9098 3.0884C35.2185 1.09479 38.1227 1.57756 39.3984 4.1665Z" fill="url(#paint5_linear_12777_46974)"/>
<path d="M39.0912 4.40189C40.2719 6.80072 39.4964 10.2401 37.3578 12.0862C35.2191 13.9322 32.5301 13.4844 31.3469 11.0856C30.1663 8.68677 30.9417 5.24736 33.0804 3.40133C35.2191 1.55531 37.9106 2.00305 39.0912 4.40189Z" fill="url(#paint6_linear_12777_46974)"/>
<path d="M60.9986 21.7756L11.9764 36.0311C10.433 36.4788 9.21986 38.3298 9.26489 40.1609L10.4631 87.3771C10.5106 89.2106 11.7413 90.2962 14.6003 89.9085L62.3644 75.6281C63.9077 75.1803 65.1209 73.3293 65.0759 71.4983L64.9708 23.1614C64.9233 21.3279 62.542 21.3254 60.9986 21.7756Z" fill="#69767B"/>
<path d="M62.69 21.7771L13.6678 36.0325C12.1244 36.4802 10.9113 38.3313 10.9563 40.1623L12.1545 87.3785C12.202 89.212 13.4902 90.3326 15.0336 89.8849L64.0558 75.6295C65.5991 75.1817 66.8123 73.3307 66.7673 71.4997L65.5691 24.2835C65.5216 22.4499 64.2334 21.3268 62.69 21.7771Z" fill="#E6EDF0"/>
<path d="M34.6373 58.0608C34.6141 58.7617 34.4803 59.4317 34.2295 60.0724C34.2234 60.2589 34.0386 60.5903 33.6814 61.0716C33.2075 61.7021 32.6172 62.099 31.9166 62.2672C31.3535 62.4024 30.9749 62.404 30.7934 62.2626C30.7957 62.1918 30.8422 62.0977 30.9328 61.9867C31.9776 61.7358 32.823 61.131 33.4755 60.1641C33.9521 59.4501 34.1952 58.8559 34.2109 58.38C34.2276 57.872 33.9521 57.3832 33.39 56.9248L33.929 55.8258C34.4367 56.2398 34.6727 56.9869 34.6373 58.0608Z" fill="#001A44"/>
<path d="M31.9044 62.5064C31.2725 62.6581 30.8507 62.6509 30.6269 62.475L30.5542 62.4223L30.5575 62.3194C30.5622 62.178 30.6355 62.0264 30.7713 61.8598L30.8425 61.7726L30.9363 61.7501C31.9122 61.5158 32.6815 60.9611 33.2884 60.0626C33.7258 59.409 33.955 58.8564 33.9688 58.4384C33.9835 57.9947 33.7247 57.5592 33.205 57.1354L33.0901 57.0418L33.8752 55.4434L34.0928 55.6209C34.6426 56.0758 34.9015 56.8812 34.8642 58.0129C34.8406 58.7267 34.6997 59.424 34.4547 60.076C34.4216 60.3264 34.23 60.6786 33.8469 61.1916C33.3278 61.8776 32.6739 62.3217 31.9044 62.5064ZM31.2903 62.118C31.4394 62.1141 31.6388 62.0918 31.9266 62.0227C32.5709 61.868 33.0915 61.5133 33.5199 60.9448C33.9744 60.3381 34.0054 60.152 34.0064 60.1199L34.0079 60.0749L34.0282 60.0253C34.157 59.6946 34.2552 59.3521 34.3165 58.9992C34.186 59.3814 33.9674 59.7975 33.6604 60.2604C33.0342 61.1826 32.2378 61.8076 31.2903 62.118ZM33.6749 56.8121C34.073 57.163 34.315 57.5387 34.4076 57.9312C34.4074 57.1848 34.2586 56.6145 33.9607 56.2395L33.6749 56.8121Z" fill="#001A44"/>
<path d="M37.6456 58.3014C37.6346 58.6358 37.5914 59.0034 37.5226 59.3963C37.4378 59.8951 37.3347 60.2005 37.2128 60.3191C37.1934 60.3429 37.1492 60.3663 37.0929 60.3798C37.0116 60.3993 36.9822 60.3489 36.9921 60.2381C37.0116 60.0229 37.0194 59.785 37.0277 59.5342C37.0428 59.0777 37.038 58.6578 37.007 58.2825L36.8254 55.6978C36.7823 55.1212 36.7766 54.5421 36.7959 53.9569C36.8034 53.7319 36.8233 53.5038 36.862 53.2712L37.3527 52.3177C37.3926 52.238 37.4377 52.1889 37.4877 52.1769C37.569 52.1574 37.6049 52.1998 37.6015 52.3027C37.5994 52.367 37.5794 52.595 37.5413 52.9997C37.5031 53.4044 37.4827 53.6453 37.48 53.7289C37.456 54.4555 37.4816 55.183 37.5569 55.9113L37.5539 56.0013L37.6329 57.5581C37.6563 57.7885 37.6543 58.0378 37.6456 58.3014Z" fill="#001A44"/>
<path d="M37.0854 60.6185C36.9853 60.6425 36.899 60.625 36.8388 60.5693C36.7725 60.5086 36.7448 60.4068 36.7618 60.2688C36.7746 60.068 36.7887 59.8285 36.7968 59.5842C36.8117 59.1341 36.8067 58.7206 36.7817 58.3502L36.6001 55.7656C36.5573 55.1826 36.552 54.5906 36.5713 54.0054C36.5789 53.7739 36.6055 53.5315 36.6384 53.2876L36.6462 53.241L37.1569 52.2444C37.2761 52.0181 37.4211 51.9514 37.5024 51.9319C37.6776 51.8898 37.8487 51.9699 37.8398 52.24C37.8383 52.285 37.828 52.4087 37.7791 52.9499C37.7317 53.4461 37.7202 53.6084 37.7185 53.6598C37.6951 54.3671 37.7208 55.0946 37.7902 55.8116L37.7891 55.8437L37.7864 55.9273L37.8656 57.4776C37.8763 57.7174 37.8803 57.9716 37.8714 58.2417C37.8599 58.589 37.8163 58.9694 37.741 59.3703C37.6413 59.9492 37.5249 60.277 37.3451 60.4605C37.2543 60.578 37.1292 60.608 37.0854 60.6185ZM37.0913 53.2937C37.0597 53.499 37.0406 53.7013 37.034 53.9007C37.0151 54.473 37.0271 55.0506 37.0643 55.6158L37.2459 58.2005C37.2705 58.5837 37.2811 59.015 37.2658 59.478C37.2643 59.523 37.263 59.5616 37.2616 59.6066C37.2758 59.5521 37.2841 59.4863 37.2988 59.419C37.3672 59.039 37.4099 58.6842 37.4205 58.3627C37.429 58.1055 37.4246 57.8642 37.4132 57.6436L37.3288 56.0627L37.3314 55.9855C37.2563 55.2508 37.2311 54.5104 37.2549 53.7902C37.2578 53.7002 37.2782 53.4593 37.3166 53.0482C37.3256 52.9631 37.3344 52.8844 37.3365 52.8201L37.0913 53.2937Z" fill="#001A44"/>
<path d="M42.9916 56.0579C42.9685 56.7588 42.8347 57.4289 42.5839 58.0696C42.5777 58.2561 42.393 58.5875 42.0358 59.0688C41.5619 59.6993 40.9716 60.0961 40.271 60.2644C39.7079 60.3995 39.3293 60.4011 39.1477 60.2597C39.1501 60.189 39.1966 60.0949 39.2872 59.9838C40.3319 59.733 41.1773 59.1281 41.8299 58.1613C42.3065 57.4472 42.5496 56.853 42.5653 56.3772C42.582 55.8692 42.3065 55.3803 41.7444 54.922L42.2834 53.8229C42.7911 54.2369 43.0271 54.9841 42.9916 56.0579ZM42.5282 50.919C42.3376 51.2391 42.146 51.5913 41.9469 51.9836C41.7224 51.8269 41.4416 51.6838 41.0918 51.5637C41.3222 51.1639 41.5011 50.8211 41.6283 50.5418C41.8177 50.6303 42.1177 50.756 42.5282 50.919Z" fill="#001A44"/>
<path d="M40.2624 60.501C39.6306 60.6527 39.2088 60.6455 38.9849 60.4696L38.9122 60.4169L38.9156 60.314C38.9202 60.1725 38.9935 60.021 39.1294 59.8544L39.2005 59.7671L39.2943 59.7446C40.2703 59.5103 41.0396 58.9556 41.6464 58.0572C42.0838 57.4035 42.3131 56.8509 42.3268 56.4329C42.3415 55.9892 42.0828 55.5538 41.563 55.1299L41.4482 55.0363L42.2333 53.438L42.4509 53.6154C43.0006 54.0703 43.2595 54.8757 43.2222 56.0075C43.1986 56.7212 43.0577 57.4185 42.8128 58.0706C42.7797 58.3209 42.5881 58.6732 42.205 59.1862C41.6858 59.8722 41.0319 60.3162 40.2624 60.501ZM39.6421 60.114C39.7912 60.1101 39.9906 60.0878 40.2783 60.0187C40.9227 59.864 41.4433 59.5094 41.8717 58.9408C42.3262 58.3341 42.3571 58.1481 42.3582 58.1159L42.3597 58.0709L42.3799 58.0214C42.5088 57.6906 42.607 57.3481 42.6683 56.9953C42.5377 57.3775 42.3192 57.7936 42.0122 58.2564C41.386 59.1786 40.5895 59.8036 39.6421 60.114ZM42.0267 54.8081C42.4247 55.1591 42.6668 55.5348 42.7594 55.9272C42.7592 55.1809 42.6104 54.6105 42.3125 54.2355L42.0267 54.8081ZM41.99 52.3481L41.7778 52.1949C41.5717 52.0467 41.2967 51.9149 40.9655 51.7967L40.7505 51.7271L40.8952 51.4818C41.1189 51.0964 41.2913 50.7615 41.4183 50.4887L41.5389 50.2173L41.753 50.3126C41.9427 50.3946 42.2427 50.5204 42.6531 50.6834L42.8553 50.7624L42.7172 50.9998C42.5331 51.3119 42.3415 51.6641 42.1425 52.0499L41.99 52.3481ZM41.4127 51.4086C41.5905 51.4744 41.7494 51.5511 41.8894 51.6323C41.9953 51.4346 42.0944 51.2513 42.1933 51.0745C41.9974 50.9939 41.8321 50.9252 41.6974 50.8682C41.6177 51.0277 41.5248 51.2095 41.4127 51.4086Z" fill="#001A44"/>
<path d="M46.6853 57.5741C45.6155 57.8309 45.0489 57.3226 44.9914 56.0542L44.8883 53.725C44.8682 53.2067 44.8208 52.5738 44.7584 51.8296L44.6423 50.4604L45.3354 49.5795L45.5184 54.7539C45.5352 55.375 45.6137 55.8155 45.742 56.0654C45.928 56.4481 46.2526 56.5807 46.7155 56.4696L46.6853 57.5741Z" fill="#001A44"/>
<path d="M46.9081 57.7567L46.6766 57.8123C45.8445 58.012 44.8371 57.8839 44.7585 56.1293L44.6554 53.8001C44.6352 53.2819 44.5878 52.6489 44.5253 51.9112L44.4002 50.4357L45.5468 48.9803L45.7495 54.6857C45.7673 55.2747 45.8344 55.686 45.951 55.9132C46.1022 56.2214 46.3472 56.3221 46.7225 56.2319L46.954 56.1764L46.9081 57.7567ZM44.8826 50.4857L44.9901 51.7422C45.0527 52.4799 45.0996 53.1257 45.1196 53.6504L45.2227 55.9796C45.2686 57.0339 45.6632 57.4878 46.4612 57.3791L46.482 56.749C46.0462 56.7898 45.7171 56.6073 45.5311 56.2245C45.3914 55.9455 45.307 55.4937 45.2917 54.8275L45.1284 50.1843L44.8826 50.4857Z" fill="#001A44"/>
<path d="M49.0306 55.1932C49.0115 55.7719 48.7875 56.3552 48.3651 56.9286C47.6967 57.2486 47.0621 57.4839 46.4677 57.6266L46.504 56.527C47.8428 56.2056 48.5177 55.8777 48.529 55.5369C48.5341 55.3826 48.3585 55.0611 48.0022 54.5725C48.14 54.348 48.3434 54.0121 48.6129 53.5583C48.916 53.964 49.0533 54.5051 49.0306 55.1932Z" fill="#001A44"/>
<path d="M46.4625 57.8642L46.231 57.9197L46.2832 56.3379L46.5147 56.2823C48.1538 55.8888 48.2936 55.6001 48.3003 55.5857C48.3012 55.56 48.2698 55.3825 47.8067 54.7473L47.7235 54.6333L48.6295 53.1336L48.8139 53.3764C49.1408 53.8146 49.2952 54.4027 49.2712 55.1294C49.2502 55.766 49.0054 56.4116 48.5441 57.0391L48.4921 57.109L48.4164 57.1463C47.7352 57.4757 47.0756 57.717 46.4625 57.8642ZM46.7365 56.7075L46.7159 57.3313C47.2046 57.1948 47.7199 57.0009 48.2559 56.7447C48.6077 56.2392 48.7915 55.7485 48.808 55.2469C48.8241 54.7582 48.7508 54.3484 48.5879 54.0175L48.2924 54.5095C48.7255 55.1136 48.78 55.343 48.7754 55.4844C48.753 55.9746 48.1387 56.3454 46.7365 56.7075Z" fill="#001A44"/>
<path d="M49.0052 58.6295C48.88 58.8509 48.6888 59.1903 48.4379 59.646C48.096 59.4729 47.7967 59.3279 47.5336 59.2124C47.7499 58.8671 47.9346 58.5356 48.0817 58.2132C48.296 58.3021 48.6018 58.4392 49.0052 58.6295Z" fill="#001A44"/>
<path d="M48.5027 59.9699L48.3074 59.8701C47.9716 59.7019 47.6722 59.5568 47.4094 59.435L47.2136 59.348L47.3641 59.1141C47.5736 58.7831 47.7519 58.4596 47.8922 58.158L48.0191 57.8851L49.3338 58.4817L49.2083 58.7096C49.0831 58.9311 48.8982 59.2689 48.6473 59.7246L48.5027 59.9699ZM47.8683 59.0696C48.0271 59.1463 48.1983 59.2264 48.3875 59.3213C48.5063 59.1078 48.6052 58.931 48.691 58.7764L48.1651 58.539C48.0789 58.7065 47.9799 58.8833 47.8683 59.0696Z" fill="#001A44"/>
<path d="M65.896 37.2234L65.5683 24.2787C65.5208 22.4452 64.2326 21.3246 62.6892 21.7723L25.1309 32.6959C31.1742 43.9196 45.2345 45.0478 65.896 37.2234Z" fill="#E6EDF0"/>
<path d="M60.6669 25.5455L18.8086 37.7673C17.3978 38.1775 16.2872 39.8209 16.3272 41.4393L17.3853 83.115C17.4253 84.7334 18.6035 85.7114 20.0143 85.3012L61.8725 73.0794C63.2833 72.6692 64.3939 71.0257 64.3539 69.4073L63.2958 27.7317C63.2558 26.1133 62.0801 25.1328 60.6669 25.5455Z" stroke="#001A44" stroke-width="0.232054" stroke-miterlimit="10" stroke-dasharray="1.9 1.9"/>
<path opacity="0.43" d="M53.0016 44.2787C51.976 44.5764 51.1681 45.8071 51.1981 47.0253L51.4332 57.4286C51.4632 58.6467 52.3212 59.3946 53.3493 59.0945L66.3565 55.3124L66.0088 40.4941L53.0016 44.2787Z" fill="#E6EDF0"/>
<path d="M68.2675 40.3788L53.8395 44.5736C52.8139 44.8713 52.0059 46.102 52.036 47.3201L52.2711 56.6053C52.3011 57.8235 53.1591 58.5714 54.1872 58.2712L68.6152 54.0764C69.6407 53.7787 70.4487 52.548 70.4187 51.3299L70.1835 42.0447C70.1535 40.8265 69.2956 40.0786 68.2675 40.3788Z" fill="#E6EDF0"/>
<path d="M67.4541 41.9675L54.7196 45.672C53.8141 45.9347 53.0987 46.9427 53.1237 47.9233L53.3138 55.3874C53.3388 56.368 54.0942 56.9483 54.9997 56.6856L67.7343 52.9811C68.6398 52.7184 69.3552 51.7104 69.3302 50.7298L69.1401 43.2657C69.1151 42.2851 68.3596 41.7048 67.4541 41.9675Z" stroke="#001A44" stroke-width="0.232054" stroke-miterlimit="10" stroke-dasharray="1.9 1.9"/>
<path d="M58.982 49.975C59.017 51.3582 58.1015 52.754 56.9359 53.0917C55.7702 53.4294 54.7997 52.5839 54.7646 51.2006C54.7296 49.8174 55.6451 48.4216 56.8108 48.0839C57.9739 47.7462 58.947 48.5942 58.982 49.975Z" fill="#C8D4D9"/>
<path opacity="0.57" d="M12.2797 36.8848C11.4593 37.7002 10.924 38.9334 10.9565 40.1616L12.1546 87.3778C12.2022 89.2113 13.4904 90.332 15.0337 89.8842L64.056 75.6288C65.5993 75.181 66.8125 73.33 66.7675 71.499L66.4923 60.6555C35.6427 87.1827 13.5804 68.7825 12.2797 36.8848Z" fill="#F5F7FA"/>
<path d="M9.17087 35.1289C6.63696 36.4071 9.97632 37.1125 13.4032 36.1195C13.4032 40.9546 14.8065 88.421 14.8065 89.8943C11.8924 90.5672 7.92018 91.175 7.92018 86.66C7.92018 79.0858 6.64947 43.0333 6.56192 39.7965C6.47687 36.5597 7.4224 35.8418 9.17087 35.1289Z" fill="#001A44"/>
<defs>
<linearGradient id="paint0_linear_12777_46974" x1="21.7006" y1="39.9236" x2="21.6506" y2="19.1942" gradientUnits="userSpaceOnUse">
<stop stop-color="#FFA300"/>
<stop offset="1" stop-color="#FFCD00"/>
</linearGradient>
<linearGradient id="paint1_linear_12777_46974" x1="22.008" y1="37.3551" x2="22.0528" y2="18.1409" gradientUnits="userSpaceOnUse">
<stop stop-color="#E27212"/>
<stop offset="1" stop-color="#FFCD00"/>
</linearGradient>
<linearGradient id="paint2_linear_12777_46974" x1="47.2441" y1="36.0306" x2="47.205" y2="19.7812" gradientUnits="userSpaceOnUse">
<stop stop-color="#FFA300"/>
<stop offset="1" stop-color="#FFCD00"/>
</linearGradient>
<linearGradient id="paint3_linear_12777_46974" x1="47.4845" y1="34.0177" x2="47.5197" y2="18.9561" gradientUnits="userSpaceOnUse">
<stop stop-color="#E27212"/>
<stop offset="1" stop-color="#FFCD00"/>
</linearGradient>
<linearGradient id="paint4_linear_12777_46974" x1="34.241" y1="15.2259" x2="34.2073" y2="1.22684" gradientUnits="userSpaceOnUse">
<stop stop-color="#FFA300"/>
<stop offset="1" stop-color="#FFCD00"/>
</linearGradient>
<linearGradient id="paint5_linear_12777_46974" x1="40.1207" y1="0.781107" x2="30.1749" y2="10.6877" gradientUnits="userSpaceOnUse">
<stop stop-color="#E27212"/>
<stop offset="1" stop-color="#FFCD00"/>
</linearGradient>
<linearGradient id="paint6_linear_12777_46974" x1="34.4464" y1="13.492" x2="34.4768" y2="0.516307" gradientUnits="userSpaceOnUse">
<stop stop-color="#E27212"/>
<stop offset="1" stop-color="#FFCD00"/>
</linearGradient>
</defs>
</svg>
