<svg width="16" height="13" viewBox="0 0 16 13" fill="none" xmlns="http://www.w3.org/2000/svg">
<path d="M7.63542 9.85433H3.98958C3.7845 9.85433 3.625 10.0366 3.625 10.2189V11.6772C3.625 11.8823 3.7845 12.0418 3.98958 12.0418H7.63542C7.81771 12.0418 8 11.8823 8 11.6772V10.2189C8 10.0366 7.81771 9.85433 7.63542 9.85433ZM7.63542 6.93766H3.98958C3.7845 6.93766 3.625 7.11995 3.625 7.30225V8.76058C3.625 8.96566 3.7845 9.12516 3.98958 9.12516H7.63542C7.81771 9.12516 8 8.96566 8 8.76058V7.30225C8 7.11995 7.81771 6.93766 7.63542 6.93766ZM12.0104 9.85433H9.09375C8.88867 9.85433 8.72917 10.0366 8.72917 10.2189V11.6772C8.72917 11.8823 8.88867 12.0418 9.09375 12.0418H12.0104C12.1927 12.0418 12.375 11.8823 12.375 11.6772V10.2189C12.375 10.0366 12.1927 9.85433 12.0104 9.85433ZM14.6081 3.04118L8.41016 0.466307C8.27344 0.420735 8.13672 0.397948 8 0.375162C7.84049 0.397948 7.70378 0.420735 7.56706 0.466307L1.36914 3.04118C0.958984 3.22347 0.708333 3.61084 0.708333 4.06657V11.6772C0.708333 11.8823 0.867838 12.0418 1.07292 12.0418H2.53125C2.71354 12.0418 2.89583 11.8823 2.89583 11.6772V6.2085C2.89583 5.82113 3.21484 5.47933 3.625 5.47933H12.3522C12.7624 5.47933 13.1042 5.82113 13.1042 6.2085V11.6772C13.1042 11.8823 13.2637 12.0418 13.4688 12.0418H14.9271C15.1094 12.0418 15.2917 11.8823 15.2917 11.6772V4.06657C15.2917 3.61084 15.0182 3.22347 14.6081 3.04118Z" fill="#69767B"/>
</svg>
