<svg width="30" height="47" viewBox="0 0 30 47" fill="none" xmlns="http://www.w3.org/2000/svg">
<path d="M29 15.644C29 25.2427 17.9229 34.231 15.4744 36.0993C15.3384 36.203 15.1716 36.2593 15 36.2593C14.8284 36.2593 14.6616 36.203 14.5256 36.0993C12.0787 34.2325 1 25.2427 1 15.644C1 7.55741 6.838 1 15 1C23.162 1 29 7.55741 29 15.644Z" fill="#FFC52F" stroke="#E5A600" stroke-linecap="round" stroke-linejoin="round"/>
<path d="M14.6875 18.375H11.5625C11.3867 18.375 11.25 18.5312 11.25 18.6875V19.9375C11.25 20.1133 11.3867 20.25 11.5625 20.25H14.6875C14.8438 20.25 15 20.1133 15 19.9375V18.6875C15 18.5312 14.8438 18.375 14.6875 18.375ZM14.6875 15.875H11.5625C11.3867 15.875 11.25 16.0312 11.25 16.1875V17.4375C11.25 17.6133 11.3867 17.75 11.5625 17.75H14.6875C14.8438 17.75 15 17.6133 15 17.4375V16.1875C15 16.0312 14.8438 15.875 14.6875 15.875ZM18.4375 18.375H15.9375C15.7617 18.375 15.625 18.5312 15.625 18.6875V19.9375C15.625 20.1133 15.7617 20.25 15.9375 20.25H18.4375C18.5938 20.25 18.75 20.1133 18.75 19.9375V18.6875C18.75 18.5312 18.5938 18.375 18.4375 18.375ZM20.6641 12.5352L15.3516 10.3281C15.2344 10.2891 15.1172 10.2695 15 10.25C14.8633 10.2695 14.7461 10.2891 14.6289 10.3281L9.31641 12.5352C8.96484 12.6914 8.75 13.0234 8.75 13.4141V19.9375C8.75 20.1133 8.88672 20.25 9.0625 20.25H10.3125C10.4688 20.25 10.625 20.1133 10.625 19.9375V15.25C10.625 14.918 10.8984 14.625 11.25 14.625H18.7305C19.082 14.625 19.375 14.918 19.375 15.25V19.9375C19.375 20.1133 19.5117 20.25 19.6875 20.25H20.9375C21.0938 20.25 21.25 20.1133 21.25 19.9375V13.4141C21.25 13.0234 21.0156 12.6914 20.6641 12.5352Z" fill="white"/>
<circle cx="15" cy="43" r="3.5" fill="#FFC52F" stroke="#E5A600" stroke-linecap="round" stroke-linejoin="round"/>
</svg>
