<svg width="64" height="40" viewBox="0 0 64 40" fill="none" xmlns="http://www.w3.org/2000/svg">
    <path d="M13.5216 21.5743C13.5216 23.8958 13.1382 26.0256 12.3502 27.9637C12.3502 28.5814 11.7539 29.5398 10.5825 30.8603C9.02771 32.5854 7.04699 33.4374 4.6616 33.4374C2.74477 33.4374 1.44558 33.1392 0.806641 32.5215C0.806641 32.2873 0.955735 32.0104 1.25391 31.7122C4.81069 31.7122 7.64334 30.3704 9.77315 27.6656C11.3279 25.6636 12.0946 23.8745 12.0946 22.2984C12.0946 20.6159 11.0936 18.763 9.1129 16.7822L10.8381 13.5449C12.6271 15.334 13.5216 18.0175 13.5216 21.5743Z" fill="black"/>
    <path d="M4.64298 34.2255C2.49187 34.2255 1.04361 33.8635 0.25558 33.0967L0 32.8625V32.5217C0 32.0531 0.234282 31.6059 0.681542 31.1586L0.915816 30.9243H1.23529C4.55779 30.9243 7.13486 29.689 9.11558 27.1759C10.5426 25.3442 11.2667 23.683 11.2667 22.2986C11.2667 20.829 10.3296 19.1678 8.49795 17.3362L8.09328 16.9315L10.6065 12.2246L11.3732 12.9913C13.3113 14.9508 14.291 17.8473 14.291 21.5958C14.291 23.9599 13.8864 26.1749 13.1196 28.1556C13.0344 28.9649 12.4168 29.9872 11.1602 31.3929C9.45636 33.2671 7.26265 34.2255 4.64298 34.2255ZM2.49188 32.4365C3.00303 32.543 3.68458 32.6282 4.66429 32.6282C6.85799 32.6282 8.60443 31.8614 10.0101 30.3067C11.501 28.6454 11.5862 28.0491 11.5862 27.9426V27.7935L11.6501 27.6444C12.0547 26.6434 12.3529 25.5785 12.5233 24.4497C12.1186 25.6211 11.4158 26.8351 10.4148 28.1343C8.37016 30.7113 5.70789 32.1596 2.49188 32.4365ZM10.074 16.6333C11.4797 18.1242 12.3529 19.5725 12.715 20.9568C12.6298 18.465 12.0547 16.4416 10.9898 14.9508L10.074 16.6333Z" fill="black"/>
    <path d="M23.873 24.7927C23.873 25.9002 23.7665 27.0929 23.5749 28.3495C23.3406 29.9469 23.0211 30.884 22.6164 31.1822C22.5526 31.246 22.4035 31.2886 22.2118 31.2886C21.9349 31.2886 21.8284 31.097 21.8497 30.7349C21.8923 30.032 21.8923 29.244 21.8923 28.4134C21.8923 26.9012 21.8284 25.4956 21.6793 24.2177L20.7635 15.4429C20.5505 13.4834 20.4653 11.5453 20.4653 9.60717C20.4653 8.86173 20.5079 8.1163 20.6144 7.37087L22.1905 4.58082C22.3183 4.34654 22.4674 4.21875 22.6377 4.21875C22.9146 4.21875 23.0424 4.38914 23.0424 4.72991C23.0424 4.94289 22.9998 5.68833 22.9146 7.00881C22.8294 8.32929 22.7868 9.11731 22.7868 9.39419C22.7868 11.8009 22.9572 14.2502 23.298 16.742V17.0402L23.7452 22.3008C23.8517 23.0889 23.873 23.9195 23.873 24.7927Z" fill="black"/>
    <path d="M22.2143 32.0754C21.8736 32.0754 21.5754 31.9477 21.3624 31.7134C21.1281 31.4578 21.0217 31.0957 21.0643 30.6485C21.0856 29.9882 21.1068 29.2002 21.1068 28.3909C21.1068 26.9 21.043 25.5156 20.9152 24.259L19.9994 15.4842C19.7864 13.5035 19.7012 11.5228 19.7012 9.58465C19.7012 8.81792 19.7651 8.02989 19.8503 7.24186L19.8716 7.09277L21.5115 4.17493C21.8949 3.51469 22.3847 3.4082 22.6616 3.4082C23.258 3.4082 23.8543 3.81286 23.8543 4.70738C23.8543 4.85647 23.833 5.26114 23.7265 7.02888C23.62 8.64754 23.5987 9.17999 23.5987 9.35038C23.5987 11.6932 23.7691 14.1425 24.0886 16.5917V16.6982V16.9751L24.5358 22.2144C24.5997 23.0238 24.6423 23.8757 24.6423 24.7702C24.6423 25.9203 24.5358 27.1556 24.3229 28.4335C24.046 30.2864 23.6839 31.2874 23.0876 31.756C22.7894 32.0754 22.3634 32.0754 22.2143 32.0754ZM21.405 7.62522C21.3198 8.28547 21.2772 8.9457 21.2772 9.60595C21.2772 11.5015 21.3837 13.4396 21.5754 15.3564L22.4912 24.1313C22.619 25.4304 22.7042 26.8787 22.7042 28.4122C22.7042 28.5613 22.7042 28.6891 22.7042 28.8381C22.7468 28.6678 22.7681 28.4548 22.8107 28.2418C23.0024 27.0278 23.1089 25.8777 23.1089 24.8128C23.1089 23.9609 23.0663 23.1515 23.0024 22.4061L22.5338 17.0603V16.8047C22.193 14.2915 22.0227 11.7997 22.0227 9.41427C22.0227 9.1161 22.0653 8.32806 22.1505 6.98628C22.1718 6.70941 22.1931 6.45383 22.1931 6.24085L21.405 7.62522Z" fill="black"/>
    <path d="M41.9581 21.5735C41.9581 23.895 41.5748 26.0248 40.7867 27.9629C40.7867 28.5806 40.1904 29.539 39.019 30.8595C37.4642 32.5846 35.4835 33.4365 33.0981 33.4365C31.1813 33.4365 29.8821 33.1384 29.2432 32.5207C29.2432 32.2865 29.3923 32.0096 29.6904 31.7114C33.2472 31.7114 36.0799 30.3696 38.2097 27.6648C39.7644 25.6627 40.5312 23.8737 40.5312 22.2976C40.5312 20.6151 39.5301 18.7622 37.5494 16.7814L39.2746 13.5441C41.0636 15.3332 41.9581 18.0167 41.9581 21.5735ZM39.7857 4.04517C39.1681 4.96099 38.5504 5.9833 37.9115 7.1334C37.1235 6.43056 36.1437 5.72773 34.9298 5.04619C35.6752 3.89609 36.2502 2.89508 36.6549 2.06445C37.3151 2.51171 38.3587 3.17195 39.7857 4.04517Z" fill="black"/>
    <path d="M33.0991 34.2262C30.9479 34.2262 29.4997 33.8642 28.7116 33.0974L28.4561 32.8632V32.5224C28.4561 32.0538 28.6903 31.6066 29.1376 31.1593L29.3719 30.925H29.6914C33.0139 30.925 35.5909 29.6897 37.5717 27.1766C38.9986 25.3449 39.7228 23.6837 39.7228 22.2993C39.7228 20.8297 38.7856 19.1685 36.954 17.3369L36.5493 16.9322L39.0625 12.2253L39.8292 12.992C41.7674 14.9515 42.7471 17.848 42.7471 21.5965C42.7471 23.9606 42.3424 26.1756 41.5757 28.1563C41.4905 28.9656 40.8729 29.9879 39.6163 31.3936C37.9124 33.2678 35.7187 34.2262 33.0991 34.2262ZM30.9266 32.4372C31.4378 32.5437 32.1193 32.6289 33.0991 32.6289C35.2928 32.6289 37.0392 31.8621 38.4449 30.3074C39.9357 28.6461 40.0209 28.0498 40.0209 27.9433V27.7942L40.0848 27.6451C40.4895 26.6441 40.7877 25.5792 40.958 24.4504C40.5534 25.6218 39.8505 26.8358 38.8495 28.135C36.8049 30.712 34.1427 32.1603 30.9266 32.4372ZM38.5088 16.634C39.9144 18.1249 40.7877 19.5732 41.1497 20.9575C41.0645 18.4657 40.4895 16.4423 39.4246 14.9515L38.5088 16.634ZM38.1041 8.39165L37.3587 7.71011C36.6345 7.04987 35.6761 6.38963 34.526 5.72939L33.7806 5.32472L34.2491 4.62189C34.9733 3.51439 35.527 2.53467 35.9317 1.72534L36.3151 0.916016L37.0605 1.40587C37.7207 1.83183 38.7643 2.49207 40.1913 3.3653L40.8941 3.79126L40.4469 4.4728C39.8505 5.36732 39.2329 6.38963 38.594 7.51843L38.1041 8.39165ZM36.0169 4.79227C36.6345 5.15434 37.1883 5.5377 37.6781 5.92107C38.0189 5.34602 38.3384 4.81357 38.6578 4.30242C37.9763 3.87646 37.4013 3.51438 36.9327 3.21621C36.6771 3.68477 36.3789 4.21722 36.0169 4.79227Z" fill="black"/>
    <path d="M54.7974 29.6048C51.1554 29.6048 49.1534 27.4536 48.8126 23.1727L48.195 15.3137C48.0672 13.5673 47.8329 11.4162 47.5347 8.88171L46.981 4.21742L49.2599 1.83203L50.4738 19.2539C50.6016 21.3411 50.9211 22.8746 51.3897 23.8117C52.0712 25.2386 53.2 25.9415 54.7761 25.9415L54.7974 29.6048Z" fill="black"/>
    <path d="M55.5898 30.3924H54.8018C51.9692 30.3924 48.4976 29.1571 48.029 23.2362L47.4114 15.3772C47.2836 13.6308 47.0493 11.4797 46.7511 8.96649L46.1548 3.94015L49.9246 0L51.2663 19.2109C51.3941 21.1916 51.671 22.6186 52.0969 23.4705C52.6507 24.6206 53.5026 25.153 54.7805 25.153H55.5685L55.5898 30.3924ZM47.816 4.49389L48.3272 8.77482C48.6254 11.288 48.8596 13.4817 48.9874 15.2494L49.6051 23.1084C49.882 26.6652 51.2876 28.4969 54.0138 28.7737V26.6865C52.5229 26.4735 51.3728 25.6003 50.6913 24.1733C50.1801 23.1297 49.8394 21.5537 49.7116 19.3174L48.6254 3.68457L47.816 4.49389Z" fill="black"/>
    <path d="M62.5944 23.5333C62.5944 25.4501 61.8916 27.2179 60.5072 28.794C58.2496 29.3264 56.0985 29.6033 54.0752 29.6033V25.9613C58.633 25.9613 60.9119 25.4076 60.9119 24.2788C60.9119 23.7676 60.2729 22.5536 58.995 20.6368C59.4423 19.9978 60.1025 19.0394 60.9758 17.7402C62.062 19.3376 62.5944 21.2544 62.5944 23.5333Z" fill="black"/>
    <path d="M54.0727 30.3927H53.2847V25.1533H54.0727C59.6528 25.1533 60.1001 24.3014 60.1214 24.2588C60.1214 24.1736 59.9936 23.556 58.3323 21.0641L58.0341 20.6168L60.9733 16.3359L61.6335 17.2944C62.8049 19.0195 63.4013 21.1067 63.4013 23.5134C63.4013 25.6219 62.6345 27.5813 61.1224 29.3065L60.952 29.4982L60.6964 29.562C58.3962 30.1158 56.1599 30.3927 54.0727 30.3927ZM54.882 26.7507V28.8166C56.5433 28.7527 58.2897 28.5184 60.1001 28.0925C61.2502 26.6868 61.8252 25.1959 61.8252 23.5347C61.8252 21.916 61.527 20.4891 60.9307 19.2538L59.9723 20.6594C61.527 23.0235 61.74 23.8329 61.74 24.3014C61.7187 25.9201 59.6528 26.6655 54.882 26.7507Z" fill="black"/>
    <path d="M62.8929 34.9931C62.4883 35.632 61.8706 36.6117 61.0613 37.9322C59.8686 37.0803 58.825 36.3562 57.9092 35.7598C58.612 34.7801 59.2084 33.8217 59.6769 32.8633C60.4224 33.3318 61.4873 34.0347 62.8929 34.9931Z" fill="black"/>
    <path d="M61.3162 39.0607L60.6346 38.5709C59.4632 37.7402 58.4196 37.0161 57.5038 36.3985L56.8223 35.9512L57.3121 35.291C57.9937 34.3539 58.5687 33.4167 59.016 32.5222L59.4206 31.7129L63.9997 34.7585L63.5951 35.4188C63.1904 36.0577 62.594 37.0374 61.7847 38.3579L61.3162 39.0607ZM59.0373 35.5465C59.591 35.9299 60.1874 36.3346 60.8476 36.8031C61.231 36.1855 61.5504 35.6743 61.8273 35.2271L59.9957 34.0131C59.7188 34.5029 59.3993 35.0141 59.0373 35.5465Z" fill="black"/>
</svg>
